SplineFontDB: 1.0
FontName: post_ti
FullName: post_ti
FamilyName: post_ti
Weight: Medium
Copyright: Created by Andrey V. Panov with FontForge 1.0 (http://fontforge.sf.net)
Comments: 2006-6-28: Created.
Version: 1
ItalicAngle: -14.04
UnderlinePosition: -100
UnderlineWidth: 50
Ascent: 800
Descent: 200
NeedsXUIDChange: 1
XUID: [1021 305 2130962764 9031447]
OS2Version: 0
OS2_WeightWidthSlopeOnly: 0
OS2_UseTypoMetrics: 0
CreationTime: 1156161719
ModificationTime: 1182134836
OS2TypoAscent: 0
OS2TypoAOffset: 1
OS2TypoDescent: 0
OS2TypoDOffset: 1
OS2TypoLinegap: 0
OS2WinAscent: 0
OS2WinAOffset: 1
OS2WinDescent: 0
OS2WinDOffset: 1
HheadAscent: 0
HheadAOffset: 1
HheadDescent: 0
HheadDOffset: 1
OS2Vendor: 'PfEd'
Encoding: UnicodeBmp
UnicodeInterp: none
NameList: Adobe Glyph List
DisplaySize: -48
AntiAlias: 1
FitToEm: 1
WinInfo: 992 16 14
BeginChars: 65536 28
StartChar: afii10066
Encoding: 1073 1073 0
Width: 475
Flags: HMW
TeX: 0 0 0 0
HStem: -11 25<191 298.5> 419 23<331.5 390> 694 -21
VStem: 90 70<73 171> 424 67<205 353>
Back
164.783 343.478 m 1
 164.783 343.478 l 1
 175.624 355.784 186.82 367.703 199.13 378.563 c 0
 206.637 385.185 214.455 391.45 222.609 397.257 c 0
 270 431.046 332.123 453.043 390 435.401 c 0
 398.696 432.727 407.215 429.13 415.217 424.755 c 0
 427.473 417.996 438.6 409.24 448.143 399.007 c 0
 460.159 386.087 469.483 371.004 476.282 354.783 c 0
 493.173 314.478 493.854 268.898 485.378 226.522 c 0
 474.288 171.079 447.391 119.311 409.565 77.3912 c 0
 386.646 51.9334 359.518 29.9999 329.13 14.0564 c 0
 284.94 -9.20097 231.102 -20.1679 183.044 -2.32793 c 0
 175.036 0.64468 167.302 4.34772 160 8.82903 c 0
 150.87 14.3408 142.517 20.9677 135.001 28.4803 c 0
 125.206 38.2608 116.957 49.5464 110.431 61.739 c 0
 101.739 77.826 96.0122 95.4795 92.9005 113.478 c 0
 89.1305 135.346 89.1305 158.008 91.8427 180 c 0
 94.0396 197.476 98.0788 214.669 102.338 231.739 c 2
 113.044 273.913 l 2
 129.411 337.122 147.057 400.701 173.779 460.435 c 0
 192.537 502.366 216.617 544.037 251.304 574.783 c 0
 268.444 590 288.044 601.877 308.696 611.645 c 0
 352.305 632.271 399.284 643.581 445.652 656.07 c 0
 469.677 662.541 493.388 669.876 516.957 677.826 c 2
 544.783 687.536 l 2
 551.576 689.947 558.451 692.719 565.649 693.627 c 0
 571.945 694.422 581.09 694.072 583.864 687.103 c 0
 585.364 683.334 584.174 679.13 582.565 675.641 c 0
 579.242 668.364 574.066 661.739 568.916 655.652 c 0
 556.518 641.08 540.817 628.871 523.478 620.693 c 0
 511.55 615.067 498.696 611.395 486.087 607.826 c 0
 424.029 590.76 357.826 583.472 301.304 550.525 c 0
 293.133 545.763 285.217 540.435 277.826 534.643 c 0
 227.197 494.947 197.391 435.335 175.877 376.087 c 0
 171.949 365.294 168.261 354.348 164.783 343.478 c 1
335.652 418.695 m 1
 335.652 418.695 l 1
 320.703 417.796 306.083 413.478 292.609 407.03 c 0
 282.729 402.301 273.421 396.398 264.783 389.673 c 0
 257.391 383.913 250.64 377.636 244.325 370.839 c 0
 202.69 326.031 188.781 264.622 174.766 206.956 c 0
 169.362 184.725 164.275 162.326 161.688 139.565 c 0
 158.168 108.592 158.634 73.4781 177.157 46.9563 c 0
 179.79 43.1889 182.755 39.6476 185.993 36.3772 c 0
 189.972 32.3594 194.348 28.6955 199.13 25.652 c 0
 205.045 21.9376 211.52 19.0694 218.261 17.1602 c 0
 226.717 14.7646 235.575 13.8529 244.348 14.2124 c 0
 274.926 15.4663 303.428 31.1872 325.606 51.4711 c 0
 331.304 56.7037 336.676 62.3298 341.661 68.2607 c 0
 380.11 114.052 394.426 173.765 408.53 230.435 c 0
 414.025 252.519 419.34 274.759 422.018 297.391 c 0
 425.54 327.16 424.519 360.19 406.713 385.642 c 0
 403.866 389.711 400.637 393.478 397.089 396.956 c 0
 392.843 401.149 388.135 404.782 383.041 407.909 c 0
 376.699 411.73 369.785 414.555 362.609 416.366 c 0
 353.822 418.584 344.688 419.298 335.652 418.695 c 1
EndSplineSet
Fore
160 112 m 4
 160 34 209 14 241 14 c 0
 281 14 319 41 342 68 c 0
 400 138 424 296 424 323 c 0
 424 383 390 419 341 419 c 0
 327 419 285 415 244 371 c 0
 177 298 160 124 160 112 c 4
90 149 m 0
 90 193 107 249 113 274 c 0
 211.233 653.593 290.053 597.836 545 688 c 0
 555 691 562 694 570 694 c 0
 582 694 585 688 585 683 c 0
 585 671 559 637 523 621 c 0
 503 611 482 607 460 602 c 0
 356 574 238 578 165 343 c 1
 241 431 316 442 347 442 c 0
 433 442 491 373 491 278 c 0
 491 132 363 -11 234 -11 c 0
 148 -11 90 57 90 149 c 0
EndSplineSet
EndChar
StartChar: afii10067
Encoding: 1074 1074 1
Width: 493
Flags: HW
TeX: 0 0 0 0
HStem: -11 23<213 317.5> 230 23<180 287> 419 23<309 406.5>
VStem: 96 71<101.5 259.5> 407 75<99 180> 457 37<300.5 381>
Back
385.565 245.217 m 1
 385.565 245.217 l 1
 397.178 241.511 408.609 237.493 419.478 231.863 c 0
 444.796 218.696 467.224 197.826 476.733 170.435 c 0
 478.973 163.913 480.464 157.249 481.107 150.435 c 0
 481.911 141.911 481.613 133.215 480.126 124.783 c 0
 478.256 114.182 474.554 103.897 469.617 94.3478 c 0
 462.522 80.7639 453.109 68.4104 442.306 57.623 c 0
 427.961 43.3004 411.191 31.287 393.391 21.637 c 0
 360.348 3.73087 323.826 -6.95652 286.435 -10.1822 c 0
 270.534 -11.5674 254.46 -11.7391 238.609 -9.72913 c 0
 210.635 -6.08696 183.912 4.67609 161.652 22.0913 c 0
 153.961 28.11 146.832 34.7826 140.423 42.1739 c 0
 102.005 86.3917 91.2175 147.54 97.7379 204.348 c 0
 100.783 231.29 107.265 257.958 118.737 282.609 c 0
 130.977 308.91 148.291 333.041 168.509 353.782 c 0
 208.102 394.348 260.037 423.809 315.565 435.77 c 0
 342.717 441.618 371.038 443.559 398.609 439.706 c 0
 415.266 437.378 431.808 432.894 446.87 425.303 c 0
 459.25 419.063 470.647 410.435 479.209 399.514 c 0
 483.143 394.472 486.435 388.946 488.939 383.043 c 0
 501.726 352.532 490.979 315.925 470 291.739 c 0
 456.57 276.323 439.043 265.086 420.348 257.115 c 0
 409.037 252.302 397.304 248.696 385.565 245.217 c 1
186.435 253.043 m 1
 186.435 253.043 l 1
 227.304 253.043 268.299 252.9 309.044 256.931 c 0
 334.145 259.415 359.425 263.335 383.391 271.429 c 0
 403.261 278.14 422.5 288.206 436.639 304.01 c 0
 453.709 323.044 463.322 353.01 452.201 377.391 c 0
 449.913 382.251 446.985 386.713 443.475 390.732 c 0
 438.038 396.957 431.477 402.15 424.26 406.167 c 0
 409.599 414.328 392.648 417.987 376 418.82 c 0
 333.587 420.87 291.442 402.943 259.478 375.829 c 0
 250.254 368.003 241.652 359.317 233.979 350 c 0
 210.783 322.057 196 287.794 186.435 253.043 c 1
180.348 230.435 m 1
 180.348 230.435 l 1
 173.177 197.817 166.375 164.885 166.969 131.304 c 0
 167.304 108.553 171.073 85.4183 181.038 64.7826 c 0
 188.776 48.6957 200.511 34.3478 215.565 24.7644 c 0
 233.144 13.4783 253.733 10.297 274.261 11.9283 c 0
 298.608 13.8631 322.36 21.6074 342.957 34.7783 c 0
 351.652 40.3491 359.734 46.8961 366.788 54.4674 c 0
 380.884 69.5652 390.348 88.2609 396.813 107.826 c 0
 398.594 113.267 400.141 118.787 401.497 124.348 c 0
 402.481 128.38 403.356 132.438 404.094 136.522 c 0
 407.739 156.742 409.005 180 396.87 197.803 c 0
 392.685 203.913 387.235 209.333 381.194 213.705 c 0
 375.104 218.112 368.3 221.496 361.217 223.986 c 0
 351.144 227.528 340.541 229.243 329.913 229.942 c 0
 315.743 230.87 301.495 230.322 287.304 230.435 c 2
 263.826 230.862 l 1
 231.652 230.435 l 1
 180.348 230.435 l 1
EndSplineSet
Fore
96 174 m 0
 96 345 249 442 369 442 c 0
 444 442 494 407 494 355 c 0xf4
 494 328 484 273 386 245 c 1
 456 223 482 183 482 141 c 0xf8
 482 57 372 -11 263 -11 c 0
 163 -11 96 65 96 174 c 0
186 253 m 1
 225 253 302 253 360 265 c 0
 414 277 457 308 457 355 c 0xf4
 457 393 421 419 369 419 c 0
 297 419 217 365 186 253 c 1
167 135 m 0
 167 68 198 12 264 12 c 0
 307 12 345 31 367 54 c 0
 395 86 407 135 407 161 c 0xf8
 407 199 383 214 361 224 c 0
 348 230 322 230 287 230 c 2
 180 230 l 1
 173 199 167 166 167 135 c 0
EndSplineSet
EndChar
StartChar: afii10069
Encoding: 1076 1076 2
Width: 475
Flags: HW
TeX: 0 0 0 0
HStem: -11 28<183 334.007> 420 23<269 375> 683 22<335.5 411.5>
VStem: 90 73<85 216.5> 459 72<401.525 571>
Back
432.609 351.304 m 1
 432.609 351.304 l 1
 442.558 390.342 451.254 429.94 455.842 470 c 0
 459.76 504.205 460.618 539.009 454.713 573.043 c 0
 448.696 607.685 435.769 644.506 406.941 666.708 c 0
 402.367 670.231 397.391 673.261 392.174 675.652 c 0
 363.864 688.696 329.565 682.444 302.174 670.213 c 2
 296.957 667.795 l 1
 293.044 665.896 l 2
 287.166 663.036 279.11 658.596 273.02 663.373 c 0
 272.288 663.913 271.638 664.623 271.083 665.369 c 0
 270.28 666.447 269.674 667.673 269.294 668.962 c 0
 267.662 674.495 270.632 679.505 274.922 682.834 c 0
 278.17 685.354 281.94 687.179 285.652 688.882 c 0
 290.772 691.221 296.009 693.297 301.304 695.175 c 0
 337.989 708.191 378.696 709.558 415.217 695.123 c 0
 423.883 691.697 432.174 687.391 440 682.342 c 0
 490.336 649.721 516.044 591.188 525.921 533.913 c 0
 527.487 524.783 528.696 515.652 529.54 506.522 c 0
 530.703 493.835 531.304 481.002 531.183 468.261 c 0
 530.841 438.343 527.575 408.509 521.969 379.13 c 0
 517.523 355.833 511.531 332.86 505.217 310 c 0
 487.368 244.94 463.85 180.87 427.993 123.478 c 0
 411.257 96.6631 392.287 70.7991 369.11 49.1304 c 0
 337.29 19.4731 297.749 -4.53738 253.913 -10.0552 c 0
 239.227 -11.9035 224.207 -11.5222 209.565 -9.4413 c 0
 193.596 -7.1713 177.826 -2.32956 163.913 5.8987 c 0
 153.72 11.9161 144.581 19.5652 136.522 28.2609 c 0
 122.756 43.3774 111.869 61.6426 103.913 80.4348 c 0
 96.9566 96.7891 92.5092 114.056 90.8174 131.739 c 0
 88.2944 158.115 91.7392 184.714 97.6096 210.435 c 0
 104.233 239.723 113.613 268.598 127.642 295.217 c 0
 142.357 323.136 162.037 347.77 184.348 369.957 c 0
 198.64 384.139 213.861 397.391 230.435 408.907 c 0
 238.696 414.66 247.391 419.936 256.522 424.437 c 0
 280.347 436.256 306.466 442.561 333.044 443.035 c 0
 340.87 443.175 348.768 442.91 356.522 441.594 c 0
 371.915 438.981 386.374 432.535 398.165 422.174 c 0
 403.346 417.702 407.97 412.552 411.96 406.949 c 0
 423.788 390.346 428.86 371.033 432.609 351.304 c 1
330 420 m 1
 330 420 l 1
 323.913 419.565 318.008 418.56 312.174 416.957 c 0
 281.452 408.803 257.391 385.54 238.631 360.87 c 0
 209.131 322.142 196.63 273.793 184.951 227.391 c 0
 177.084 196.087 168.389 164.68 164.544 132.609 c 0
 161.572 107.809 161.952 82.4344 171.931 59.1305 c 0
 177.775 45.4805 186.879 33.0435 200 25.6522 c 0
 204.777 23.0313 209.92 21.0844 215.218 19.7587 c 0
 223.824 17.6048 232.886 16.8331 241.739 17.2918 c 0
 278.696 19.2079 309.793 45.5431 332.088 73.0435 c 0
 351.304 96.7966 364.454 124.214 375.35 152.609 c 0
 382.138 170.297 388.472 188.261 393.702 206.522 c 2
 397.826 223.044 l 2
 400.324 232.487 403.162 241.739 405.414 251.304 c 0
 409.414 268.17 412.288 285.309 413.478 302.609 c 0
 413.903 308.539 414.197 314.489 414.187 320.435 c 0
 414.178 325.217 413.913 330 413.625 334.783 c 0
 411.739 360.435 404.774 388.23 384.214 405.473 c 0
 381.154 408.039 377.826 410.307 374.344 412.174 c 0
 369.427 414.91 364.142 416.886 358.696 418.192 c 0
 349.353 420.432 339.552 420.732 330 420 c 1
EndSplineSet
Fore
90 150 m 0
 90 283 201 443 337 443 c 0
 413 443 427 380 433 351 c 1
 442 389 459 457 459 521 c 0
 459 621 418 683 357 683 c 0
 314 683 291 661 279 661 c 0
 273 661 269 668 269 672 c 0
 269 691 325 705 360 705 c 0
 463 705 531 610 531 471 c 0
 531 332.05 433.014 -11 235 -11 c 0
 131 -11 90 82 90 150 c 0
163 107 m 0
 163 63 181 17 236 17 c 0
 356 17 414 245 414 320 c 0
 414 407 369 420 338 420 c 0
 288 420 256 384 239 361 c 0
 192 300 163 143 163 107 c 0
EndSplineSet
EndChar
StartChar: afii10073
Encoding: 1079 1079 3
Width: 460
Flags: HW
TeX: 0 0 0 0
HStem: -11 22<164.5 264> 80 81<97 125.5> 230 23<202 257.5> 419 23<258.9 353.5>
VStem: 65 85<64 138.5> 353 76<101.5 196.5> 381 75<329 388.5>
Back
97.1739 80.4348 m 1
 97.1742 80.4348 l 1
 99.7829 71.5648 102.928 62.9939 108.044 55.2174 c 0
 126.245 27.8204 158.913 14.8769 190.652 12.0587 c 0
 233.343 8.25953 279.605 21.9943 310.475 52.4161 c 0
 321.029 62.8156 329.348 74.95 335.822 88.2608 c 0
 345.226 107.678 351.36 129.336 353.078 150.87 c 0
 354.106 163.76 353.193 177.293 347.574 189.13 c 0
 343.365 197.995 336.618 205.497 328.872 211.44 c 0
 322.561 216.282 315.435 220 308.044 222.843 c 0
 296.911 227.031 285.093 229.06 273.261 229.876 c 0
 263.567 230.544 253.841 230.435 244.131 230.435 c 2
 202.391 230.435 l 2
 195.533 230.435 184.712 229.986 181.871 237.993 c 0
 181.522 238.949 181.358 239.96 181.348 240.973 c 0
 181.271 248.261 188.269 251.9 194.565 252.609 c 0
 200.482 253.331 206.499 253.043 212.391 253.043 c 2
 240.652 253.043 l 2
 255.264 253.043 270.063 252.405 284.565 254.521 c 0
 315.544 259.04 346 274.565 362.326 302.174 c 0
 368.478 312.609 372.784 324.319 375.87 336.087 c 0
 378.617 346.403 380.76 357.117 380.779 367.826 c 0
 380.793 375.627 379.487 383.478 375.658 390.403 c 0
 373.455 394.348 370.541 397.826 367.174 400.986 c 0
 352.805 414.486 331.957 418.689 312.826 418.957 c 0
 270.385 419.549 227.734 400.848 197.91 371.005 c 0
 190.338 363.429 183.466 355.134 177.716 346.087 c 2
 171.604 335.752 l 2
 169.783 332.734 167.978 329.565 165.304 327.306 c 0
 158.801 321.688 147.609 324.484 143.17 331.447 c 0
 138.478 338.663 143.977 347.953 147.609 354.348 c 2
 150.217 358.696 l 2
 163.982 380.677 183.363 398.633 205.435 412.056 c 0
 249.183 438.66 301.758 446.522 351.957 438.696 c 0
 379.475 434.348 407.14 424.571 428.422 406.087 c 0
 436.001 399.52 442.686 391.817 447.603 383.043 c 0
 450.217 378.376 452.31 373.415 453.696 368.261 c 0
 460.731 343.286 451.522 317.783 435.65 298.261 c 0
 411.957 269.23 377.138 252.985 342.391 241.304 c 1
 349.594 238.534 356.739 235.652 363.696 232.275 c 0
 376.618 225.841 388.805 217.564 399.16 207.482 c 0
 406.545 200.292 412.959 192.085 417.925 183.043 c 0
 421.522 176.467 424.33 169.449 426.172 162.174 c 0
 427.609 156.48 428.446 150.651 428.68 144.783 c 0
 430.157 107.826 409.007 75.3065 382.383 51.527 c 0
 366.079 36.9565 347.342 25.2174 327.609 15.9217 c 0
 292.652 -0.590426 254.453 -9.46347 215.87 -11.0343 c 0
 183.616 -12.3478 150.327 -7.82608 121.522 7.55436 c 0
 106.035 15.787 91.9565 27.3383 81.9031 41.7391 c 0
 65.5174 65.0752 61.0113 95.6522 68.7918 123.043 c 0
 71.7796 133.478 77.5652 142.929 86.0939 149.84 c 0
 101.447 162.28 126.576 166.024 141.317 150.435 c 0
 143.107 148.598 144.66 146.486 145.87 144.206 c 0
 154.502 128.571 147.598 108.245 136.025 96.087 c 0
 133.588 93.5844 130.885 91.287 127.973 89.2957 c 0
 118.645 82.9178 108.26 80.8696 97.1739 80.4348 c 1
EndSplineSet
Fore
65 96 m 0
 65 145 96 161 116 161 c 0
 135 161 150 148 150 129 c 0
 150 116 141 82 97 80 c 1
 114 25 167 11 205 11 c 0
 306 11 353 93 353 160 c 0xfc
 353 230 277 230 244 230 c 2
 202 230 l 2
 195 230 181 230 181 241 c 0
 181 253 195 253 202 253 c 2
 244 253 l 2
 274 253 334 253 362 302 c 0
 375 325 381 354 381 368 c 0
 381 409 340 419 311 419 c 0
 255 419 201 388 172 336 c 0
 167 327 161 324 156 324 c 0
 148 324 141 332 141 338 c 0xfa
 141 359 203 442 315 442 c 0
 392 442 456 405 456 351 c 0xfa
 456 307 418 267 342 241 c 1
 375 229 429 199 429 141 c 0
 429 62 323 -11 205 -11 c 0
 124 -11 65 32 65 96 c 0
EndSplineSet
EndChar
StartChar: afii10078
Encoding: 1084 1084 4
Width: 741
Flags: W
TeX: 0 0 0 0
HStem: -11 23<100 144.5 639 686> 43 80<88 116.5>
VStem: 56 85<39 101> 579 59<34.5 95.5>
Back
296.435 430.435 m 1
 296.435 430.435 l 1
 335.999 430.402 l 2
 342.897 430.314 350.604 430.096 355.703 424.753 c 0
 359.043 421.216 360.453 416.387 361.45 411.724 c 0
 362.522 406.402 363.391 401.013 364.385 395.652 c 2
 376.205 328.261 l 1
 404.658 166.087 l 2
 410.106 134.926 415.13 103.657 421.217 72.6086 c 1
 430.761 87.6086 440.91 102.174 450.864 116.956 c 2
 496.377 184.348 l 1
 630.29 382.609 l 2
 636.855 392.32 643.279 402.146 650.04 411.722 c 0
 654.539 418.092 659.642 425.062 667.034 428.236 c 0
 671.369 430.097 676.133 430.311 680.782 430.391 c 2
 694.695 430.434 l 1
 699.913 430.427 l 2
 707.883 430.396 720.007 431.072 722.684 421.304 c 0
 723.705 417.652 722.956 413.677 722.24 409.996 c 0
 721.174 404.891 719.819 399.841 718.554 394.783 c 2
 704.424 338.261 l 1
 652.25 129.565 l 2
 646 104.779 638.734 79.6413 638.294 53.913 c 0
 638.1 42.6087 638.704 29.6865 646.26 20.5748 c 0
 647.986 18.4926 650.043 16.683 652.369 15.2956 c 0
 654.187 14.2108 656.16 13.3939 658.174 12.87 c 0
 672.799 9.1304 685.565 20.0726 693.759 30.8695 c 0
 700.698 40.0978 705.666 50.6947 710.024 61.3043 c 0
 717.03 78.363 722.188 96.0869 726.958 113.913 c 0
 729.376 122.932 731.097 132.393 734.353 141.153 c 0
 735.829 145.127 738.08 148.853 741.912 150.87 c 0
 749.4 154.972 762.056 153.043 764.045 143.574 c 0
 765.265 137.728 763.097 131.283 761.652 125.652 c 0
 758.973 114.876 756.102 104.13 752.939 93.4782 c 0
 747.248 74.3078 740.783 55.0135 731.217 37.3913 c 0
 725.379 26.6004 718.277 16.32 709.294 7.82607 c 0
 702.757 1.73694 695.255 -3.38306 686.87 -6.64219 c 0
 676.765 -10.5691 665.886 -11.6552 655.13 -10.7587 c 0
 630.303 -8.69567 607.632 3.91303 593.718 24.7826 c 0
 580.241 44.9978 576.521 70.1395 579.447 93.913 c 0
 581.511 110.681 586.53 127.122 590.62 143.478 c 2
 625.728 283.913 l 2
 632.245 309.98 639.043 335.99 645.13 362.174 c 1
 644.696 362.174 l 1
 636.121 348.635 626.988 335.454 618.022 322.174 c 2
 577.209 261.739 l 1
 454.696 80.4348 l 1
 426.847 39.1304 l 2
 421.376 31.0291 416.135 22.6087 410.184 14.9174 c 0
 403.391 6.06608 392.846 -2.17392 381.009 1.66564 c 0
 371.162 4.7826 369.333 15.4678 367.723 24.3478 c 2
 356.647 87.3913 l 2
 340.936 177.1 324.696 266.737 309.478 356.522 c 1
 309.044 356.522 l 1
 304.892 337.391 299.815 318.52 295.076 299.565 c 2
 271.054 203.478 l 1
 261.163 163.913 l 2
 257.203 148.087 253.131 132.308 247.56 116.957 c 0
 238.472 91.9095 225.885 68.2391 209.824 46.9565 c 0
 205.412 41.11 200.737 35.4626 195.74 30.1061 c 0
 174.232 7.05172 144.436 -14.3478 111.217 -10.5813 c 0
 106.784 -10.0752 102.398 -9.13045 98.1739 -7.67915 c 0
 92.9309 -5.88785 87.9574 -3.34045 83.3913 -0.117411 c 0
 61.6522 15.4535 54.4157 43.1409 56.8339 68.6956 c 0
 57.5739 76.5126 58.9939 84.3478 61.9165 91.7369 c 0
 69.7387 111.304 90.2118 125.585 111.652 123.174 c 0
 115.539 122.737 119.364 121.709 122.901 120 c 0
 125.847 118.63 128.581 116.79 130.971 114.571 c 0
 132.789 112.883 134.407 110.98 135.766 108.905 c 0
 145.13 94.5713 140.218 74.9678 130.2 62.3543 c 0
 123.391 53.8252 113.969 47.5891 103.391 44.9122 c 0
 98.2635 43.6117 92.9566 43.2674 87.7392 43.0435 c 1
 89.2231 37.1308 90.9683 31.3043 94.3748 26.2108 c 0
 96.1605 23.4782 98.307 21.0665 100.768 18.9752 c 0
 102.648 17.3774 104.696 15.9952 106.87 14.9039 c 0
 118.609 9.11824 132.421 12.6087 143.391 18.4717 c 0
 153.104 23.6491 161.58 30.8695 169.2 38.7926 c 0
 181.844 51.8643 192.257 66.9565 200.741 83.0435 c 0
 208.247 97.2461 214.418 112.121 219.393 127.391 c 0
 224.003 141.543 227.554 156.005 231.163 170.435 c 2
 243.554 220 l 2
 261.096 290.167 278.449 360.384 296.435 430.435 c 1
645.42 362.753 m 1
 645.275 362.464 l 1
 645.42 362.753 l 1
87.7391 43.4781 m 1
 87.3044 43.0434 l 1
 87.7391 43.4781 l 1
EndSplineSet
Fore
56 59 m 0
 56 108 87 123 107 123 c 0
 126 123 141 111 141 91 c 0
 141 69 122 43 88 43 c 1
 94 14 114 12 120 12 c 0
 142 12 197 33 231 170 c 2
 296 430 l 1
 336 430 l 2
 363 430 360 416 364 396 c 0
 368 380 409 137 421 73 c 1
 421 73 440 100 451 117 c 2
 650 412 l 2
 661 428 668 430 681 430 c 2
 700 430 l 2
 718 430 723 427 723 418 c 0
 723 412 721 405 719 395 c 2
 652 130 l 2
 646 104 638 79 638 51 c 0
 638 18 654 12 664 12 c 0
 708 12 728 124 734 141 c 0
 737 149 744 153 751 153 c 0
 758 153 764 149 764 140 c 0
 764 134 750 73 731 37 c 0
 713 4 690 -11 662 -11 c 0
 616 -11 579 25 579 79 c 0
 579 112 620 253 645 362 c 1
 427 39 l 2
 412 18 403 1 387 1 c 0
 372 1 369 16 368 24 c 2
 309 357 l 1
 304 332 256 140 248 117 c 0
 223 49 170 -11 119 -11 c 0
 81 -11 56 19 56 59 c 0
EndSplineSet
EndChar
StartChar: Kappa
Encoding: 922 922 5
Width: 778
Flags: HW
TeX: 0 0 0 0
HStem: 0 31<33 50 293.5 327 478 496 626.5 743> 652 31<204 239 484 498 673 681 780.5 892>
Back
203.87 683.043 m 1
 203.87 683.044 l 1
 267.895 680.738 331.977 679.777 396.044 680.435 c 0
 430.11 680.849 464.17 681.888 498.217 683.044 c 1
 490.391 652.174 l 1
 469.386 652.174 448.217 652.293 427.348 650.238 c 0
 415.596 649.083 403.191 647.373 393.801 639.565 c 0
 382.323 630 379.087 615.961 375.609 602.174 c 2
 360.663 542.174 l 1
 319.902 379.131 l 2
 312.335 348.863 304.304 318.664 297.348 288.261 c 1
 634.304 547.391 l 1
 673.87 577.826 l 2
 684.532 586.087 695.76 594.348 703.406 605.652 c 0
 705.681 609.021 707.606 612.609 708.846 616.522 c 0
 709.745 619.327 710.278 622.264 710.25 625.215 c 0
 710.228 627.56 709.846 629.898 709.087 632.122 c 0
 708.399 634.182 707.348 636.087 706.16 637.919 c 0
 698.652 648.696 685.609 651.181 673.435 652.174 c 1
 680.826 683.044 l 1
 751.204 680.435 821.801 678.412 892.131 683.044 c 1
 884.739 652.174 l 1
 871.417 651.83 858.217 650.577 845.174 647.903 c 0
 815.174 641.739 786.871 629.237 760.826 613.362 c 0
 734.925 597.574 711.348 578.261 687.348 559.8 c 2
 571.696 470.836 l 2
 549.419 453.7 527.318 436.301 504.739 419.565 c 1
 540.641 335.652 576.476 251.739 612.13 167.826 c 2
 641.66 98.6957 l 2
 648.976 81.5231 656.187 63.0122 669.522 49.5431 c 0
 673 46.0317 676.913 42.9322 681.261 40.4348 c 0
 689.377 35.8204 698.591 33.6313 707.783 32.4413 c 0
 719.454 30.8696 731.251 30.8696 743 30.8696 c 1
 735.609 1.35899e-05 l 1
 661.261 2.5374 l 1
 621.261 2.60871 l 1
 478.217 1.33514e-05 l 1
 485.609 30.4348 l 1
 486.044 30.8696 l 1
 505.601 30.977 527.68 31.3044 542.399 46.247 c 0
 544.451 48.2609 546.292 50.6161 547.783 53.1196 c 0
 549.784 56.4309 551.113 60.0926 551.682 63.9131 c 0
 553.544 76.4144 548.025 88.6957 543.312 100 c 2
 520.516 153.478 l 1
 431.261 362.609 l 1
 399.334 338.827 368.032 314.173 336.478 289.9 c 2
 308.217 268.16 l 2
 302.083 263.429 295.162 258.803 290.577 252.444 c 0
 286.406 246.659 284.981 239.397 283.274 232.608 c 2
 275.772 202.609 l 1
 248.815 94.7826 l 2
 246.467 85.3891 243.842 76.0126 241.914 66.5217 c 0
 240.242 58.2609 239.957 49.3691 245.843 42.6087 c 0
 252.365 35.1313 263.264 33.8617 272.565 32.8613 c 0
 293.32 30.6287 314.304 30.8696 335.174 30.8696 c 1
 327.348 5.72205e-06 l 1
 263.323 2.31435 199.24 3.26653 135.174 2.56653 c 0
 101.108 2.17392 67.0474 1.15609 33 5.72205e-06 c 1
 40.3913 30.4348 l 1
 40.8261 30.8696 l 1
 62.4017 30.8696 84.1278 30.6817 105.609 33 c 0
 113.827 33.887 122.439 34.9787 129.933 38.6843 c 0
 135.336 41.3043 139.957 45.3965 143.657 50.1596 c 0
 149.087 57.2913 151.607 65.7622 153.801 74.3478 c 2
 159.033 95.2174 l 1
 180.989 183.043 l 1
 258.815 494.348 l 1
 283.38 592.609 l 2
 285.174 599.845 287.11 607.065 288.652 614.348 c 0
 290.26 621.273 291.378 628.696 288.42 635.446 c 0
 283.967 645.566 272.97 648.261 263 649.647 c 0
 240.911 652.609 218.217 652.174 196.043 652.174 c 1
 203.435 682.609 l 1
 203.87 683.043 l 1
297.348 288.261 m 1
 296.913 287.826 l 1
 297.348 288.261 l 1
EndSplineSet
Fore
290 626 m 0
 290 650 267 652 211 652 c 2
 196 652 l 1
 204 683 l 1
 255 681 305 680 356 680 c 0
 405 680 437 681 498 683 c 1
 490 652 l 1
 484 652 l 2
 399 652 388.095 648.976 376 602 c 0
 349.21 497.946 300 299 297 288 c 1
 674 578 l 2
 692 592 710 606 710 625 c 0
 710 636 703 650 673 652 c 1
 681 683 l 1
 721 682 761 680 800 680 c 0
 831 680 862 681 892 683 c 1
 885 652 l 1
 789 650 753 611 505 420 c 1
 642 99 l 2
 668 36 683 31 743 31 c 1
 736 0 l 1
 699 2 662 3 643 3 c 0
 610 3 495 0 478 0 c 1
 486 31 l 1
 506 31 528 31 542 46 c 0
 552 56 552 67 552 69 c 0
 552 80 547 90 543 100 c 2
 431 363 l 1
 289 253 l 1
 287 246 241 71 241 57 c 0
 241 33 263 31 324 31 c 2
 335 31 l 1
 327 0 l 1
 277 2 227 3 177 3 c 0
 119 3 76 1 33 0 c 1
 41 31 l 1
 50 31 l 2
 128 31 144 35 154 74 c 2
 283 593 l 2
 285.984 605.004 290 616 290 626 c 0
EndSplineSet
EndChar
StartChar: Lambda
Encoding: 923 923 6
Width: 694
Flags: MW
TeX: 0 0 0 0
HStem: -0 31<31 39 237 245 394 438.5 661 669> 3 28<39 143 515.5 660> 716 -21
Back
38.8261 30.8696 m 1
 38.826 30.8696 l 1
 55.7826 31.3044 72.7339 33.307 88.826 39.1305 c 0
 110.565 47.0805 129.076 61.637 143.025 80.0001 c 0
 151.771 91.5201 158.562 104.431 165.72 116.957 c 2
 192.615 163.913 l 1
 409.446 542.609 l 1
 486.093 676.522 l 1
 494.82 691.738 l 2
 500.565 701.734 506.958 713.044 519.261 715.535 c 0
 521.543 715.986 523.877 716.087 526.186 716.027 c 0
 527.956 715.932 529.871 715.652 531.633 715.104 c 0
 532.966 714.687 534.252 714.11 535.425 713.35 c 0
 542.876 708.524 542.873 698.261 543.463 690.435 c 2
 543.875 684.783 l 1
 544.478 675.652 l 1
 554.192 542.609 l 1
 579.866 188.696 l 1
 586.832 92.6087 l 2
 587.403 84.7826 587.874 76.9413 588.622 69.1304 c 0
 589.361 61.4187 590.549 53.4209 594.851 46.7926 c 0
 600.565 37.98 610.13 34.5995 620.13 33.0435 c 0
 636.17 30.6052 652.643 30.8695 668.826 30.8695 c 1
 661.435 -1.94311e-05 l 1
 634.346 1.17085 607.244 2.17389 580.13 2.55042 c 0
 518.098 3.40042 456.036 2.09433 394.043 -1.90735e-05 c 1
 401.87 30.8695 l 1
 422.739 30.8695 444.284 31.043 464.478 37.2426 c 0
 475.316 40.57 486.217 46.5148 491.61 56.9565 c 0
 494.913 63.6474 494.641 71.0517 494.179 78.2608 c 2
 492.527 101.304 l 1
 485.348 200 l 1
 467.522 445.217 l 2
 464.478 487.099 461.786 529.014 458.391 570.87 c 1
 457.957 570.87 l 1
 448.391 552.951 438.049 535.44 427.947 517.826 c 2
 380.565 435.217 l 2
 330.565 347.639 280.487 260.087 230.268 172.609 c 2
 198.391 116.957 l 1
 188.779 100 l 2
 185.605 94.21 182.563 88.2331 181.139 81.7391 c 0
 180.389 78.2609 180.09 74.7826 180.33 71.3044 c 0
 181.643 52.1739 199.152 39.5278 216.217 34.6726 c 0
 225.573 32.0104 235.235 31.2378 244.913 30.8696 c 1
 237.087 2.38419e-07 l 1
 188.826 2.08391 140.565 3.41826 92.3043 2.51478 c 0
 71.8504 2.13174 51.4239 1.12522 31 0 c 1
 38.8261 30.8696 l 1
EndSplineSet
Fore
525 716 m 0x80
 542 716 543 702 543 690 c 2
 587 93 l 2
 591 40 590 31 660 31 c 2x40
 669 31 l 1
 661 -0 l 1x80
 625 2 589 3 540 3 c 0x40
 491 3 443 2 394 -0 c 1
 402 31 l 1
 475 31 494 44 494 73 c 2
 458 571 l 1
 189 100 l 2
 183 90 181 81 181 73 c 0
 181 47 207 32 245 31 c 1
 237 -0 l 1x80
 199 2 162 3 124 3 c 0x40
 87 3 59 2 31 -0 c 1
 39 31 l 1
 117 33 140 71 166 117 c 2
 495 692 l 2
 500 701 508 716 525 716 c 0x80
EndSplineSet
EndChar
StartChar: Tau
Encoding: 932 932 7
Width: 722
Flags: W
TeX: 0 0 0 0
HStem: -0 31<171 196 493.5 559> 647 30<225 439.5 590 654>
Back
224.652 677.391 m 1
 224.652 677.391 l 1
 359.435 677.391 l 1
 429.435 677.346 l 1
 462.913 675.995 l 1
 516.391 674.783 l 1
 580.739 675.414 l 1
 631.609 677.351 l 1
 701.174 677.391 l 1
 835.087 677.391 l 1
 821.082 590 l 1
 798.565 452.174 l 1
 773.348 452.174 l 1
 778.645 485.652 784.652 519.458 785.035 553.478 c 0
 785.203 570.26 784.645 588.696 776.729 603.909 c 0
 767.522 621.597 749.234 632.609 730.739 638.486 c 0
 716.537 642.956 701.609 644.876 686.826 645.808 c 0
 667.451 646.956 647.969 646.522 628.565 646.522 c 0
 617.13 646.522 605.597 646.819 594.217 645.497 c 0
 585.605 644.496 577.065 642.174 570.664 636.051 c 0
 564.143 629.745 561.341 621.154 559.092 612.609 c 2
 554.815 595.652 l 1
 533.511 510.435 l 1
 452.043 184.783 l 1
 428.13 89.1304 l 1
 424.302 73.4782 l 2
 422.298 65.0652 420.737 56.333 425.49 48.5056 c 0
 433.123 35.9382 449.265 34.6187 462.478 33.3865 c 0
 494.36 30.4134 526.58 30.8695 558.565 30.8695 c 1
 550.739 -4.19617e-05 l 1
 467.571 2.24996 384.374 3.27865 301.174 2.57865 c 0
 257.834 2.17387 214.501 1.08735 171.174 -4.19617e-05 c 1
 178.565 30.4347 l 1
 179 30.8695 l 1
 210.719 30.8695 242.582 30.5813 274.217 33.2291 c 0
 291.12 34.6439 308.735 36.4704 321.431 48.9743 c 0
 333.012 60.3791 335.278 77.0687 339 92.1739 c 2
 360.033 176.087 l 1
 440.685 498.696 l 1
 464.815 595.217 l 2
 466.798 603.149 469 611.08 470.529 619.13 c 0
 471.487 624.348 471.975 630.203 469.435 635.153 c 0
 465.078 643.807 454.182 645.217 445.522 645.973 c 0
 435.957 646.732 426.382 646.522 416.826 646.522 c 2
 379 646.504 l 2
 334.885 646.247 287.696 639.353 253.011 609.691 c 0
 235.703 594.891 223.934 574.964 213.937 554.783 c 0
 197.611 521.821 186.367 486.796 174.217 452.174 c 1
 149 452.174 l 1
 200.739 606.087 l 1
 224.652 677.391 l 1
EndSplineSet
Fore
225 677 m 1
 429 677 l 2
 450 677 470 675 530 675 c 0
 591 675 611 677 632 677 c 2
 835 677 l 1
 799 452 l 1
 773 452 l 1
 779 487 785 521 785 558 c 0
 785 633 739 647 654 647 c 2
 618 647 l 2
 562 647 566 634 555 596 c 2
 424 73 l 2
 423 69 422 64 422 60 c 0
 422 34 451 31 536 31 c 2
 559 31 l 1
 551 -0 l 1
 485 2 419 3 353 3 c 0
 292 3 250 2 171 -0 c 1
 179 31 l 1
 196 31 l 2
 328 31 325.976 40.0061 339 92 c 2
 465 595 l 2
 468 608 471 618 471 627 c 0
 471 644 457 647 417 647 c 2
 380 647 l 2
 238 647 218 576 174 452 c 1
 149 452 l 1
 225 677 l 1
EndSplineSet
EndChar
StartChar: Omega
Encoding: 937 937 8
Width: 722
Flags: W
TeX: 0 0 0 0
HStem: 0 64<168.5 279 447 643> 682 23<437.5 604.5>
VStem: 84 24<107.5 162> 162 100<328.5 483.5> 276 25<47.5 139> 686 99<414 577.5>
Back
275.696 64.3478 m 1
 275.696 64.3478 l 1
 275.398 77.9608 274.067 91.4313 271.342 104.783 c 0
 266.095 130.435 256.373 155.004 245.261 178.696 c 0
 227.87 215.736 206.753 250.87 190.043 288.261 c 0
 177.435 316.358 167.614 345.87 163.866 376.522 c 0
 159.793 409.827 163.521 443.871 174.21 475.652 c 0
 191.348 526.784 225.617 571.142 266.13 606.087 c 0
 284.594 622.067 304.641 636.045 325.696 648.34 c 0
 397.287 690.145 482.007 710.848 564.826 703.911 c 0
 626.783 698.696 688.455 676.457 732.495 631.259 c 0
 740.337 623.211 747.435 614.548 753.76 605.217 c 0
 760.557 595.099 766.387 584.305 771.054 573.043 c 0
 776.933 558.863 780.913 543.886 783.087 528.696 c 0
 784.362 519.892 784.806 511.061 784.801 502.174 c 0
 784.797 493.881 784.391 485.622 783.37 477.391 c 0
 776.565 423.829 749.327 375.409 716.54 333.478 c 0
 675.505 281.001 625.253 236.522 578.304 189.565 c 0
 551.783 163.033 525.937 135.617 503.852 105.217 c 0
 494.336 92.1187 485.848 78.4253 477.87 64.3479 c 1
 542.217 64.3479 l 2
 559.034 64.3479 575.845 64.23 592.652 64.8796 c 0
 602.523 65.2174 612.456 65.8153 622.217 67.3913 c 0
 629.609 68.5931 637 70.4348 643.087 75.11 c 0
 652.357 82.1622 658.114 93.467 663.522 103.478 c 0
 673.831 122.461 682.592 142.174 691.783 161.739 c 1
 717 161.739 l 1
 678.552 77.3913 l 1
 643.087 4.09335e-05 l 1
 490.913 4.09335e-05 l 2
 478.739 4.09335e-05 466.558 -0.221263 454.391 4.09335e-05 c 0
 448.687 0.19265 442.032 0.562215 438.027 5.21743 c 0
 435.261 8.37961 434.826 12.5609 435.261 16.5218 c 0
 435.993 22.7453 438.137 28.8618 440.015 34.7826 c 0
 448.295 60.8696 459.609 85.9105 472.601 110 c 0
 505.646 171.523 548.646 226.924 588.073 284.348 c 0
 612.906 320.515 636.809 357.735 654.826 397.826 c 0
 659.925 409.068 664.568 420.514 668.581 432.174 c 0
 672.163 442.584 675.201 453.189 677.69 463.913 c 0
 688.814 511.855 691.06 566.087 666.336 610.435 c 0
 663.02 616.373 659.174 622.035 655.029 627.385 c 0
 648.694 635.457 641.471 642.804 633.509 649.276 c 0
 622.51 658.218 610.137 665.374 597 670.68 c 0
 579.824 677.619 561.547 681.201 543.087 682.174 c 0
 510.913 684.011 478.474 677.23 448.739 665.217 c 0
 411.433 650.307 377.282 626.877 349.575 597.771 c 0
 319.174 565.878 296.523 527.391 281.655 486.087 c 0
 274.391 466.076 268.998 445.388 265.85 424.348 c 0
 263.401 407.98 262.184 391.304 262.217 374.783 c 0
 262.554 326.711 272.538 279.47 282.217 232.609 c 0
 293.72 177.076 304.582 120.87 300.437 63.913 c 0
 299.472 50.6361 297.714 37.3913 295.116 24.3478 c 0
 293.874 18.1091 292.761 10.8696 288.512 5.89087 c 0
 283.957 0.554783 276.931 0.155652 270.424 0 c 0
 258.128 -0.163043 245.818 0 233.522 0 c 2
 77 0 l 1
 83.9565 161.739 l 1
 109.174 161.739 l 1
 108.387 141.92 107.245 122.005 108.223 102.174 c 0
 108.645 93.593 108.71 83.147 114.231 76.0478 c 0
 117.87 71.3044 123.522 69.1304 129.174 67.9087 c 0
 138.405 65.8674 148.027 65.3883 157.435 64.9735 c 0
 174.675 64.213 191.922 64.3478 209.174 64.3478 c 2
 275.696 64.3478 l 1
EndSplineSet
Fore
108 119 m 0
 108 96 109 79 117 73 c 0
 126 66 147 64 190 64 c 2
 276 64 l 1
 273 190 162 274 162 403 c 0
 162 564 342 705 533 705 c 0
 676 705 785 624 785 502 c 0
 785 326 564 217 478 64 c 1
 553 64 l 2
 657 64 646 64 692 162 c 1
 717 162 l 1
 643 0 l 1
 454 0 l 2
 440 0 435 5 435 14 c 0
 435 19 437 26 440 35 c 0
 495 207 686 345 686 528 c 0
 686 627 619 682 533 682 c 0
 400 682 262 553 262 375 c 0
 262 282 301 189 301 89 c 0
 301 6 288 0 270 0 c 2
 77 0 l 1
 84 162 l 1
 109 162 l 1
 109 147 108 133 108 119 c 0
EndSplineSet
EndChar
StartChar: lambda
Encoding: 955 955 9
Width: 450
Flags: HW
TeX: 0 0 0 0
HStem: -11 76<359.5 406> 630 75<261.5 333.5>
VStem: 334 34<106.5 537>
Back
13 0 m 1
 13.0001 3.62396e-05 l 1
 35.9527 31.997 60.0493 63.2 83.5671 94.7826 c 0
 132.565 160.648 181.696 226.452 230.988 292.174 c 2
 298.188 382.174 l 1
 318.984 410 l 2
 323.403 415.949 328.423 421.901 331.497 428.696 c 0
 334.47 435.217 334.285 442.502 334.3 449.565 c 2
 334.304 477.391 l 1
 334.304 515.217 l 2
 334.303 532.483 334.098 549.787 332.081 566.956 c 0
 330.224 582.756 327.105 599.788 317.55 612.926 c 0
 314.879 616.599 311.696 619.916 308.04 622.609 c 0
 290.531 635.535 265.066 629.934 247.783 619.425 c 0
 244.295 617.303 240.991 614.879 237.908 612.174 c 0
 235.932 610.435 234.049 608.658 232.242 606.762 c 2
 228.492 602.609 l 1
 225.978 599.807 l 2
 221.218 594.516 213.648 587.717 206.171 592.403 c 0
 205.078 593.043 204.13 593.994 203.392 595.053 c 0
 200.944 598.568 201.219 603.043 202.428 606.956 c 0
 204.722 614.348 209.399 621.214 213.375 627.826 c 0
 223.611 644.783 234.381 661.812 247.894 676.457 c 0
 256.478 685.838 266.478 694.427 278.218 699.782 c 0
 284.524 702.609 291.261 704.546 298.218 705.096 c 0
 303.152 705.489 308.151 705.217 313 704.212 c 0
 316.29 703.478 319.506 702.487 322.562 701.086 c 0
 343.331 691.569 353.118 668.66 358.448 647.826 c 0
 359.405 644.084 360.24 640.312 360.981 636.522 c 0
 361.938 631.619 362.738 626.686 363.427 621.739 c 0
 364.292 615.527 364.976 609.291 365.533 603.044 c 0
 366.255 594.941 366.767 586.822 367.131 578.696 c 0
 369.04 535.997 368.217 493.164 368.217 450.435 c 2
 368.217 250 l 1
 368.217 189.565 l 2
 368.217 175.652 368.084 161.734 368.502 147.826 c 0
 368.864 135.78 369.362 123.736 370.561 111.739 c 0
 371.421 103.13 372.565 94.4492 374.861 86.087 c 0
 375.913 82.2474 377.248 78.4318 379.274 74.9857 c 0
 380.391 72.9692 381.885 71.0766 383.616 69.4952 c 0
 384.614 68.5835 385.711 67.7774 386.899 67.13 c 0
 395.525 62.427 405.902 67.7605 412.963 72.9739 c 2
 417.208 76.4057 l 2
 418.899 77.8261 420.519 79.4605 422.076 81.0883 c 0
 424.011 83.0435 425.842 85.2174 427.608 87.3913 c 0
 430.171 90.55 432.553 93.8652 435.321 96.8405 c 0
 439.672 101.518 446.583 105.845 452.844 101.896 c 0
 453.821 101.279 454.685 100.435 455.382 99.5644 c 0
 456.167 98.5279 456.733 97.3374 457.074 96.0844 c 0
 458.217 91.6809 456.705 87.0552 454.927 83.0409 c 0
 451.834 76.0552 447.913 69.4039 444.426 62.6087 c 0
 437.492 49.097 430.814 35.3405 422.492 22.6087 c 0
 416.453 13.3709 409.394 4.50915 400.352 -1.96129 c 0
 390.178 -9.24129 375.257 -14.2909 363.726 -7.07433 c 0
 358.217 -3.65303 354.304 1.73915 351.41 7.39132 c 0
 346.478 16.9565 343.87 27.7539 341.927 38.2609 c 0
 338.294 57.3913 336.799 77.0361 335.82 96.5218 c 0
 334.709 118.657 334.304 140.87 334.304 163.044 c 2
 334.304 268.696 l 2
 334.304 289.098 334.936 309.565 333.87 330 c 1
 325.174 317.391 315.901 305.217 306.759 293.043 c 2
 270.781 244.783 l 1
 160.583 96.9565 l 1
 111.646 31.3043 l 1
 98.3478 13.4783 l 2
 95.1739 9.45261 91.8209 5.02391 87.177 2.53043 c 0
 83.4348 0.546522 79.2739 0.197826 75.1565 0.076087 c 2
 62.5652 0 l 1
 13 0 l 1
EndSplineSet
Fore
302 705 m 0
 365 705 368 604 368 537 c 2
 368 173 l 2
 368 101 373 65 394 65 c 0
 418 65 434 104 448 104 c 0
 451 104 457 101 457 93 c 0
 457 83 434 42 422 23 c 0
 411 5 395 -11 376 -11 c 0
 343 -11 334 50 334 163 c 2
 334 330 l 1
 325 317 316 305 307 293 c 2
 98 13 l 2
 89 2 85 0 75 0 c 2
 13 0 l 1
 319 410 l 2
 334 430 334 430 334 450 c 2
 334 515 l 2
 334 559 334 630 284 630 c 0
 239 630 227 591 211 591 c 0
 206 591 201 595 201 601 c 0
 201 609 246 705 302 705 c 0
EndSplineSet
EndChar
StartChar: mu
Encoding: 956 956 10
Width: 500
Flags: MW
TeX: 0 0 0 0
HStem: -260 21<17 36> -11 51<370 445> -11 25<175 233.5> 430 -21
VStem: -11 91<-238.5 -207.5> 121 26<63.5 117.5> 322 73<61 96>
Back
149.739 430.435 m 1
 149.739 430.435 l 1
 224.956 430.435 l 1
 218.869 404.251 212.071 378.241 205.554 352.174 c 2
 171.043 214.348 l 1
 158.598 164.348 l 2
 155.994 153.913 153.217 143.478 150.985 133.043 c 0
 149.73 127.148 148.706 121.203 147.984 115.217 c 0
 144.403 85.5504 147.427 50.2848 170.836 28.9191 c 0
 173.833 26.1839 177.1 23.7409 180.609 21.7104 c 0
 208.089 5.84129 242.783 16.9052 266.26 34.9174 c 0
 271.437 38.9 276.261 43.2969 280.881 47.9374 c 0
 285.601 52.7061 290.04 57.7478 294.16 63.0435 c 0
 299.209 69.5326 303.791 76.3804 307.937 83.4782 c 0
 315.391 96.2726 321.563 109.859 326.256 123.913 c 0
 330.488 136.522 333.511 149.651 336.696 162.609 c 2
 350.12 216.087 l 2
 367.98 287.529 386.237 358.885 403.652 430.435 c 1
 478.87 430.435 l 1
 471.431 398.14 462.94 366.063 454.902 333.913 c 2
 411.043 158.696 l 2
 405.157 134.934 398.079 110.977 395.694 86.5217 c 0
 394.522 75.1722 394.079 62.0313 400.289 51.95 c 0
 401.645 49.7491 403.307 47.7357 405.237 46.0143 c 0
 416.261 36.1774 432.783 38.6957 443.965 46.9335 c 0
 451.66 52.603 457.501 60.4348 462.227 68.6957 c 0
 470.468 83.0296 475.287 98.7717 481.881 113.839 c 0
 483.37 117.243 485.152 121.101 488.346 123.238 c 0
 493.432 126.641 498.323 122.174 499.443 117.123 c 0
 500.879 110.633 498.09 103.737 495.683 97.8261 c 0
 490.743 85.6522 484.799 73.9131 478.222 62.6087 c 0
 473.511 54.5022 468.396 46.6313 462.767 39.1304 c 0
 444.447 14.7204 418.87 -8.26085 387.13 -10.7904 c 0
 382.646 -11.1478 378.123 -11.0909 373.652 -10.5796 c 0
 367.006 -9.81912 360.468 -8.01346 354.522 -4.88781 c 0
 349.134 -2.04303 344.317 1.83088 340.263 6.3861 c 0
 334.622 12.7231 330.585 20.2761 327.807 28.2609 c 0
 323.952 39.3448 322.52 50.9452 321.913 62.6087 c 1
 321.478 62.6087 l 1
 315.497 53.9131 309.095 45.5939 301.913 37.8261 c 0
 274.957 8.79827 237.565 -14.0096 196.696 -10.8696 c 0
 189.6 -10.2582 182.55 -8.90564 175.826 -6.54738 c 0
 169.161 -4.20912 162.857 -0.891725 157.13 3.3048 c 0
 149.715 8.81219 143.361 15.7413 138.283 23.4783 c 0
 131.7 33.4783 127.365 44.8596 124.657 56.5218 c 0
 119.697 77.8261 120.7 99.6948 123.217 121.304 c 1
 122.783 121.304 l 1
 119.304 103.236 114.957 85.3361 110.953 67.3913 c 2
 89.9396 -26.0869 l 2
 83.9483 -52.7317 77.1278 -79.313 74.2296 -106.522 c 0
 71.7496 -129.802 71.7944 -153.293 74.8109 -176.522 c 0
 75.7009 -183.375 76.8987 -190.175 78.2217 -196.957 c 0
 79.8544 -205.325 81.4696 -213.742 79.2609 -222.174 c 0
 77.2626 -229.8 72.7135 -236.522 67.1122 -241.979 c 0
 56.9422 -251.89 42.9887 -258.261 28.8696 -259.609 c 0
 16.8704 -260.786 4.35871 -257.826 -3.64303 -248.261 c 0
 -16.3082 -233.058 -10.6956 -211.543 -6.39781 -194.348 c 2
 23.5978 -74.3478 l 1
 106.261 256.522 l 2
 120.807 314.487 135.609 372.382 149.739 430.435 c 1
124.956 129.13 m 1
 124.522 128.696 l 1
 124.956 129.13 l 1
124.522 126.956 m 1
 124.087 126.522 l 1
 124.522 126.956 l 1
123.942 124.927 m 1
 123.797 124.638 l 1
 123.942 124.927 l 1
123.652 123.043 m 1
 123.217 121.739 l 1
 123.652 121.739 l 1
 123.652 123.043 l 1
EndSplineSet
Fore
150 430 m 1x2e
 225 430 l 1
 186 264 147 140 147 95 c 0
 147 45 172 14 210 14 c 0x2e
 257 14 304 59 326 124 c 0
 330 137 333 150 337 163 c 2
 404 430 l 1
 479 430 l 1
 448 297 395 117 395 75 c 0
 395 47 412 40 423 40 c 0
 467 40 475 115 488 123 c 0
 494 127 500 121 500 113 c 0
 500 99 453 -11 382 -11 c 0x4e
 358 -11 325 -0 322 63 c 1
 296 24 254 -11 204 -11 c 0
 146 -11 121 37 121 90 c 0
 121 101 122 112 123 123 c 1
 123 123 72 -82 72 -139 c 0
 72 -180 80 -200 80 -215 c 0
 80 -242 48 -260 24 -260 c 0
 10 -260 -11 -253 -11 -224 c 0
 -11 -214 -9 -204 -6 -194 c 2
 150 430 l 1x2e
EndSplineSet
EndChar
StartChar: nu
Encoding: 957 957 11
Width: 417
Flags: W
TeX: 0 0 0 0
HStem: 402 39<171.5 220>
VStem: 224 51<295.5 377.5>
Back
133.522 -21.7391 m 1
 133.522 -21.7391 l 2
 144.474 1.13655 154.515 24.3352 162.965 48.2609 c 0
 188.299 119.988 202.399 195.018 214.082 270 c 2
 219.901 308.261 l 2
 221.587 319.522 223.349 330.791 223.952 342.174 c 0
 224.685 356.004 223.957 371.304 217.367 383.86 c 0
 211.238 395.403 197.87 404.771 184.391 400.594 c 0
 179.564 399.096 175.383 395.998 171.774 392.527 c 0
 165.781 386.764 161.073 379.754 156.895 372.609 c 0
 151.337 363.043 146.649 353.043 142.177 343.043 c 0
 139.287 336.522 136.769 329.739 133.087 323.601 c 0
 130.478 319.091 126.786 314.714 121.691 312.949 c 0
 117.073 311.304 111.428 312.609 109.74 317.71 c 0
 109.33 318.934 109.174 320.236 109.247 321.521 c 0
 109.422 326.522 111.78 331.511 113.701 336.087 c 0
 116.95 343.831 120.361 351.514 123.9 359.13 c 0
 126.549 364.783 129.301 370.435 132.167 376.087 c 0
 134.391 380.435 136.759 384.783 139.174 389.13 c 0
 146.923 402.487 155.878 415.523 167.531 425.75 c 0
 175.594 432.826 185.067 438.42 195.696 440.435 c 0
 199.845 441.253 204.085 441.514 208.304 441.304 c 0
 213.748 441.12 219.174 440.217 224.391 438.6 c 0
 231.152 436.501 237.435 433.043 242.962 428.677 c 0
 249.904 423.043 255.541 416.017 259.877 408.26 c 0
 266.317 396.735 270.031 383.812 272.314 370.87 c 0
 276.431 347.535 275.682 323.478 274.069 300 c 0
 270.043 242.174 258.673 185.033 240.687 130 c 0
 233.647 108.46 225.383 87.3878 216.565 66.5218 c 1
 247 91.7035 l 2
 255.657 98.9883 264.232 106.372 272.652 113.913 c 0
 319.363 155.85 364.228 204.894 383.087 266.087 c 0
 395.469 305.914 394.502 347.954 401.775 388.696 c 0
 403.267 397.055 404.826 405.652 408.297 413.475 c 0
 413.609 425.495 423.957 435.202 436.565 439.13 c 0
 448.956 443.12 464.205 441.439 472.098 429.993 c 0
 473.4 428.106 474.391 426.03 475.123 423.849 c 0
 477.079 417.793 476.441 411.304 475.23 405.217 c 0
 472.217 390.31 468.134 375.555 464.253 360.87 c 0
 455.67 328.394 445.475 296.221 430.452 266.087 c 0
 389.72 184.348 317.435 124.491 247.435 68.6174 c 2
 180.913 15.6522 l 2
 165.209 3.04348 149.712 -9.80304 133.522 -21.7391 c 1
EndSplineSet
Fore
206 441 m 0
 234 441 275 423 275 332 c 0
 275 259 258 165 217 67 c 1
 284 122 357 182 383 266 c 0
 405 337 385 441 449 441 c 0
 464 441 476 432 476 415 c 0
 476 401 455 315 430 266 c 0
 386 177 318 125 181 16 c 0
 165 3 150 -10 134 -22 c 1
 202 119 224 328 224 350 c 0
 224 390 204 402 191 402 c 0
 152 402 142 312 118 312 c 0
 113 312 109 316 109 321 c 0
 109 324 145 441 206 441 c 0
EndSplineSet
EndChar
StartChar: chi
Encoding: 967 967 12
Width: 472
Flags: MW
TeX: 0 0 0 0
HStem: -261 75<271.5 360.5> 391 50<175 255>
VStem: 237 48<0 86>
Back
-6 -250 m 1
 -5.99998 -250 l 1
 13.9013 -217.267 34.6561 -185.029 55.0626 -152.609 c 2
 159.217 13.0435 l 1
 208.17 90.8696 l 1
 222.647 113.913 l 2
 226.063 119.39 229.829 124.996 231.501 131.304 c 0
 232.924 136.67 232.665 142.329 232.517 147.826 c 2
 231.917 167.826 l 1
 229.809 237.391 l 1
 228.03 296.087 l 2
 227.643 308.839 227.427 321.615 226.588 334.348 c 0
 225.54 350.23 223.876 368.895 212.52 381.135 c 0
 210.487 383.327 208.163 385.217 205.593 386.788 c 0
 191.227 395.357 172.569 389.539 159.652 380.979 c 0
 157.044 379.29 154.665 377.391 152.261 375.474 c 0
 149.431 373.04 146.694 370.422 144.111 367.661 c 0
 140.837 364.16 137.814 360.427 135.041 356.519 c 0
 131.614 351.691 128.563 346.596 125.91 341.304 c 0
 123.715 336.929 121.823 332.416 120.087 327.826 c 0
 118.634 323.808 117.344 319.661 115.304 315.86 c 0
 113.38 312.163 110.522 308.784 106.72 306.957 c 0
 101.465 304.533 94.8696 306.003 92.8831 311.886 c 0
 91.0848 317.123 93.0487 323.207 94.5965 328.261 c 0
 98.1813 339.967 103.023 351.304 108.726 362.174 c 0
 126.174 395.421 154.578 427.476 191.826 438.098 c 0
 209.123 443.03 229.406 443.574 244.777 432.976 c 0
 265.887 418.421 271.668 390.353 274.533 366.522 c 0
 276.58 349.499 277.125 332.34 277.672 315.217 c 2
 279.652 250 l 2
 280.078 235.652 280.224 221.265 281.391 206.957 c 1
 319.17 267.391 l 1
 381.242 366.087 l 1
 408.028 408.694 l 1
 415.507 420.212 l 1
 423.505 428.105 l 1
 434.435 430.345 l 1
 447.478 430.435 l 1
 497.044 430.435 l 1
 480.028 402.548 462.36 375.045 444.969 347.391 c 2
 351.193 198.261 l 1
 307.446 128.696 l 1
 294.61 108.261 l 2
 291.36 103.041 287.83 97.7074 286.125 91.7392 c 0
 284.435 85.837 284.833 79.544 285.004 73.4783 c 2
 285.739 48.6957 l 1
 288.335 -36.5217 l 1
 290.8 -117.826 l 2
 291.328 -134.958 291.073 -153.07 301.357 -167.72 c 0
 303.767 -171.154 306.609 -174.27 309.907 -176.956 c 0
 329.863 -193.043 359.437 -184.602 377.881 -170.263 c 0
 381.565 -167.399 384.996 -164.203 388.11 -160.728 c 0
 392.083 -156.297 395.462 -151.396 398.154 -146.089 c 0
 400.626 -141.216 402.43 -135.853 405.898 -131.557 c 0
 409.77 -126.759 417.32 -122.801 422.96 -127.222 c 0
 423.739 -127.832 424.404 -128.579 424.87 -129.416 c 0
 425.61 -130.5 426.046 -131.739 426.287 -133.043 c 0
 427.289 -138.178 425.416 -143.781 423.874 -148.696 c 0
 420.522 -159.171 416.353 -169.353 411.367 -179.13 c 0
 400.505 -200.435 385.921 -220.191 367.457 -235.506 c 0
 355.304 -245.547 341.391 -253.65 326.174 -257.869 c 0
 310.912 -262.1 293.203 -263.001 278.783 -255.465 c 0
 274.821 -253.385 271.177 -250.704 267.913 -247.603 c 0
 259.217 -239.292 253.873 -228.317 250.377 -216.956 c 0
 245.449 -200.943 243.656 -184.044 242.52 -167.391 c 0
 240.657 -140.063 240.397 -112.609 239.574 -85.2174 c 0
 238.56 -51.4574 237.159 -17.6839 236.609 16.087 c 1
 236.174 16.087 l 1
 211.205 -24.3478 l 1
 171.826 -86.9565 l 1
 69.2174 -250 l 1
 -6 -250 l 1
EndSplineSet
Fore
92 316 m 0
 92 339 137 441 215 441 c 0
 295 441 273 316 281 207 c 1
 418 426 419 430 432 430 c 2
 497 430 l 1
 295 108 l 2
 286 95 285 90 285 82 c 0
 285 75 289 -51 291 -118 c 0
 291 -139 291 -186 336 -186 c 0
 385 -186 405 -133 406 -132 c 0
 414 -122 426 -124 426 -135 c 0
 426 -163 379 -261 304 -261 c 0
 239 -261 243 -180 240 -85 c 0
 239 -51 237 -17 237 17 c 1
 69 -250 l 1
 -6 -250 l 1
 223 114 l 2
 231 128 233 133 233 141 c 0
 233 144 228 309 226 342 c 0
 224 372 211 391 190 391 c 0
 160 391 132 362 120 328 c 0
 112 306 108 306 100 306 c 0
 95 306 92 313 92 316 c 0
EndSplineSet
EndChar
StartChar: afii10082
Encoding: 1088 1088 13
Width: 506
Flags: HW
TeX: 0 0 0 0
HStem: -194 21G<25.5 33 199 207.5> -11 23<259 345.5> 418 24<160.5 202.5 367.5 433.5>
VStem: 454 69<210.5 349.5>
Back
198.217 50 m 1
 198.217 50 l 1
 194.478 32.8009 189.931 15.7692 185.609 -1.3043 c 2
 164.902 -84.3478 l 1
 155.174 -123.043 l 2
 153.323 -130.776 150.581 -139.216 151.23 -147.268 c 0
 151.35 -148.762 151.63 -150.251 152.13 -151.655 c 0
 154.492 -157.826 161.009 -160 166.913 -161.099 c 0
 176.61 -162.9 186.663 -163.107 196.478 -163.353 c 0
 201.085 -163.478 205.753 -163.336 210.334 -163.913 c 0
 213.435 -164.348 216.687 -165.104 219.233 -167.092 c 0
 225.122 -171.739 224.62 -180.459 221.093 -186.363 c 0
 217.348 -192.609 210.63 -193.95 203.86 -193.936 c 0
 195.317 -193.919 186.754 -193.277 178.217 -192.956 c 0
 137.109 -191.41 95.8508 -190.966 54.7391 -192.616 c 2
 46.913 -192.952 l 1
 40.826 -193.245 l 2
 32.813 -193.64 20.7465 -195.575 16.0434 -187.097 c 0
 15.4756 -186.087 15.0673 -184.873 14.8287 -183.68 c 0
 14.5287 -182.183 14.4965 -180.639 14.66 -179.13 c 0
 14.8595 -177.273 15.3465 -175.45 16.0434 -173.74 c 0
 16.6452 -172.417 17.3478 -171.156 18.2173 -170.014 c 0
 24.2487 -162.223 35.5808 -163.579 44.3043 -163.111 c 0
 56.913 -162.432 71.01 -161.304 79.3813 -150.448 c 0
 81.6956 -147.416 83.4347 -143.973 84.8739 -140.435 c 0
 87.5982 -133.553 89.2917 -126.283 91.093 -119.13 c 2
 97.9456 -91.7391 l 1
 119.522 -5.21732 l 1
 186.043 260.87 l 1
 198.815 311.739 l 2
 202.906 328.112 207.035 344.512 209.006 361.304 c 0
 210.104 370.654 210.713 380.188 209.595 389.565 c 0
 208.901 395.389 207.523 401.267 204.484 406.346 c 0
 202.993 408.839 201.121 411.11 198.895 412.982 c 0
 197.099 414.493 195.078 415.733 192.904 416.62 c 0
 178.397 422.537 164.304 412.045 155.683 401.236 c 0
 147.922 391.575 142.493 380.1 137.783 368.696 c 0
 131.037 352.174 125.996 335.03 121.344 317.826 c 0
 119.003 309.13 117.093 300.344 114.398 291.739 c 0
 113.163 287.826 111.506 283.844 108.217 281.177 c 0
 102.13 276.237 89.4856 276.219 85.1739 283.562 c 0
 81.7991 289.324 84.3043 297.075 85.8078 303.043 c 0
 89.4695 317.792 93.4347 332.476 98.0943 346.957 c 0
 104.033 365.59 110.99 384.202 121.366 400.87 c 0
 128.573 412.449 137.644 423.142 149.087 430.719 c 0
 179.087 450.614 222.33 441.718 246.253 416.226 c 0
 253.801 408.182 259.644 398.574 263.533 388.261 c 0
 265.772 382.325 267.273 376.183 268.652 370 c 1
 276.644 378.635 284.728 387.19 293.435 395.113 c 0
 319.832 419.128 353.078 439.325 389.522 441.404 c 0
 398.371 441.909 407.303 441.304 416.043 439.897 c 0
 425.787 438.261 435.305 435.373 444.304 431.301 c 0
 455.26 426.344 465.335 419.647 474.252 411.587 c 0
 485.332 401.572 494.503 389.565 501.662 376.522 c 0
 510.826 359.705 516.756 341.03 519.956 322.174 c 0
 525.805 287.925 523.09 252.41 515.313 218.696 c 0
 499.367 149.559 461.69 83.913 406.913 38.3561 c 0
 399.681 32.3378 392.13 26.6826 384.304 21.4761 c 0
 377.979 17.2743 371.458 13.3657 364.739 9.82609 c 0
 359.485 7.0587 354.123 4.48913 348.652 2.17391 c 0
 315.365 -11.8839 274.887 -18.2609 242.13 0.623044 c 0
 235.134 4.65 228.652 9.56522 222.924 15.2174 c 0
 212.654 25.3178 205.13 37.2739 198.652 50 c 1
 198.217 50 l 1
389.522 418.649 m 1
 389.522 418.649 l 1
 363.235 416.924 339.235 401.718 319.956 384.754 c 0
 306.282 372.711 294.119 358.926 283.209 344.348 c 0
 277.348 336.522 271.261 328.426 267.086 319.565 c 0
 264.012 313.044 262.402 306.053 260.665 299.13 c 2
 254.304 273.913 l 1
 233.706 191.304 l 1
 221.261 141.739 l 2
 218.909 132.113 215.93 122.427 214.427 112.609 c 0
 212.695 101.297 215.551 89.5653 218.51 78.6957 c 0
 225.254 53.8857 238.767 27.6079 263.435 16.6522 c 0
 266.913 15.1018 270.576 13.9131 274.304 13.0435 c 0
 279.433 11.9544 284.708 11.4953 289.957 11.6992 c 0
 319.925 12.8648 345.432 33.8944 364.517 55.2175 c 0
 368.876 60.0922 372.991 65.1779 376.873 70.4348 c 0
 407.611 112.055 422.31 162.174 434.739 211.739 c 0
 442.679 243.044 450.718 274.692 453.435 306.957 c 0
 455.609 333.044 454.52 361.257 442.806 385.217 c 0
 435.474 400.215 423.153 413.314 406.478 417.338 c 0
 400.94 418.675 395.174 419.021 389.522 418.649 c 1
EndSplineSet
Fore
15 -181 m 0
 15 -150 60 -175 79 -150 c 0
 86 -142 88 -130 91 -119 c 2
 199 312 l 2
 200 318 210 352 210 380 c 0
 210 412 195 418 184 418 c 0
 141 418 124 322 114 292 c 0
 111 281 104 278 98 278 c 0
 92 278 84 280 84 290 c 0
 84 301 91 325 98 347 c 0
 111 387 134 442 187 442 c 0
 218 442 257 423 269 370 c 1
 297 401 340 442 395 442 c 0
 472 442 523 375 523 284 c 0
 523 137 402 -11 289 -11 c 0
 235 -11 209 27 198 51 c 1
 194 31 151 -133 151 -145 c 0
 151 -160 165 -163 201 -163 c 0
 212 -163 224 -164 224 -177 c 0
 224 -183 220 -194 204 -194 c 0
 194 -194 166 -192 109 -192 c 0
 46 -192 37 -194 29 -194 c 0
 22 -194 15 -190 15 -181 c 0
214 105 m 0
 214 84 231 12 287 12 c 0
 305 12 338 19 377 70 c 0
 427 138 454 282 454 327 c 0
 454 372 437 419 394 419 c 0
 361 419 322 393 296 360 c 0
 274 334 268 326 261 299 c 0
 234 196 214 114 214 105 c 0
EndSplineSet
EndChar
StartChar: afii10087
Encoding: 1093 1093 14
Width: 540
Flags: HW
TeX: 0 0 0 0
HStem: -11 23<146.5 198 355.5 434.5> 419 23<210.5 279 449.5 500.5>
VStem: 66 82<26.5 82> 499 83<348.5 403.5>
Back
111.522 26.087 m 1
 111.522 26.0868 l 1
 115.435 23.619 119.459 21.2716 123.696 19.4312 c 0
 133.467 15.2173 144.07 13.1464 154.565 12.1329 c 0
 168.621 10.7764 182.391 11.9303 195.435 17.7638 c 0
 214.833 26.4642 230.606 42.556 242.326 59.9999 c 0
 249.996 71.4164 256.143 83.9129 260.652 96.9564 c 0
 263.549 105.211 265.646 113.702 267.77 122.174 c 2
 274.728 150 l 1
 305.815 274.348 l 2
 312.111 299.532 319.133 325.134 318.809 351.304 c 0
 318.597 368.375 314.565 385.618 303.433 398.967 c 0
 299.974 403.043 295.958 406.768 291.482 409.767 c 0
 269.783 424.263 241.087 419.397 218.913 408.803 c 0
 215 406.956 211.275 404.919 207.609 402.705 c 0
 202.932 399.881 198.432 396.765 194.13 393.398 c 0
 188.806 389.23 183.796 384.672 179.012 379.896 c 0
 172.764 373.658 166.919 366.956 161.522 360 c 0
 155 351.304 149.149 342.174 144.032 332.609 c 0
 139.348 323.912 135.321 314.9 131.896 305.652 c 0
 129.691 299.701 128.129 293.396 125.431 287.645 c 0
 124.049 284.701 122.153 281.971 119.348 280.225 c 0
 112.739 276.087 100.191 276.757 96.9473 284.96 c 0
 95.6012 288.363 96.0616 292.174 96.8229 295.652 c 0
 98.0434 301.439 100.143 307.083 102.217 312.609 c 0
 111.439 337.173 125.174 360.107 142.277 379.995 c 0
 173.62 416.44 219.145 443.798 268.478 441.459 c 0
 276.973 441.057 285.435 439.858 293.696 437.78 c 0
 303.052 435.422 312.184 431.951 320.652 427.314 c 0
 330.5 421.923 339.488 414.958 347.174 406.818 c 0
 357.529 395.953 364.722 383.216 370.652 369.565 c 1
 390.411 403.003 422.314 432.429 461.522 439.824 c 0
 479.567 443.228 498.812 441.739 516.739 438.259 c 0
 538.999 433.913 562.738 424.265 574.845 403.899 c 0
 584.271 388.043 583.696 366.773 574.565 350.87 c 0
 567.714 338.91 555.87 329.869 542.391 326.83 c 0
 537.7 325.775 532.826 325.421 528.044 325.951 c 0
 524.312 326.365 520.637 327.328 517.174 328.894 c 0
 514.414 330.18 511.792 331.863 509.462 333.889 c 0
 497.706 344.116 496.739 360.584 502.251 374.347 c 0
 506.304 384.527 513.854 393.24 523.261 398.848 c 0
 527.174 401.216 531.51 402.85 535.87 404.348 c 1
 531.506 406.957 527.092 409.501 522.36 411.442 c 0
 512.826 415.344 502.596 417.36 492.391 418.261 c 0
 478.303 419.671 464.532 418.417 451.522 412.541 c 0
 431.922 403.688 415.979 387.315 404.263 369.565 c 0
 396.966 358.51 391.034 346.408 386.645 333.913 c 0
 383.696 325.52 381.522 316.881 379.348 308.261 c 2
 372.391 280.435 l 1
 341.902 158.261 l 2
 335.386 132.174 327.609 105.379 328.29 78.2609 c 0
 328.675 61.4918 332.767 44.4826 343.813 31.4383 c 0
 347.324 27.2913 351.38 23.5739 355.869 20.5457 c 0
 377.377 6.08697 405.99 11.1222 428.043 21.5065 c 0
 432.068 23.4013 435.984 25.5248 439.783 27.8261 c 0
 444.458 30.6861 448.913 33.8291 453.26 37.2048 c 0
 458.478 41.3044 463.562 45.8404 468.312 50.5922 c 0
 474.648 56.9309 480.534 63.7235 485.943 70.8696 c 0
 492.483 79.5109 498.28 88.6957 503.373 98.2609 c 0
 508.004 106.957 512.039 115.978 515.435 125.217 c 0
 517.609 131.15 519.18 137.391 521.904 143.18 c 0
 523.36 146.236 525.402 149.006 528.376 150.725 c 0
 535.136 154.632 547.158 153.687 550.301 145.471 c 0
 551.607 142.057 551.087 138.252 550.379 134.77 c 0
 549.117 128.994 547.074 123.35 544.997 117.826 c 0
 535.87 93.6487 522.391 70.8696 505.614 51.3044 c 0
 474.377 14.7717 429.178 -13.0152 379.783 -11.0683 c 0
 371.087 -10.7283 362.522 -9.57347 354.13 -7.51217 c 0
 344.565 -5.21738 335.357 -1.6439 326.739 3.0274 c 0
 316.739 8.43001 307.609 15.4204 299.783 23.6639 c 0
 289.712 34.3478 282.56 46.9565 276.739 60.4348 c 1
 270.173 50.4252 263.35 40.6522 255.228 31.8231 c 0
 235.76 10.66 209.936 -6.00173 181.087 -10.1339 c 0
 163.96 -12.5874 145.791 -11.0052 128.913 -7.5139 c 0
 107.944 -3.17607 85.8695 5.84349 73.6587 24.3478 c 0
 58.4782 47.5113 65.3222 80.8152 88.0435 96.3544 c 0
 92.0956 99.0735 96.4765 101.205 101.087 102.609 c 0
 105.72 104.069 110.582 104.783 115.435 104.718 c 0
 119.569 104.639 123.696 103.913 127.594 102.523 c 0
 130.453 101.472 133.159 100 135.609 98.2126 c 0
 137.779 96.6117 139.749 94.74 141.452 92.6087 c 0
 149.492 82.7774 149.747 69.4057 145.603 57.8261 c 0
 141.792 47.1752 134.13 37.9526 124.559 31.997 c 0
 120.467 29.4578 116.038 27.7057 111.522 26.087 c 1
EndSplineSet
Fore
66 52 m 0
 66 79 85 105 115 105 c 0
 135 105 148 91 148 73 c 0
 148 54 137 35 112 26 c 1
 116 23 133 12 165 12 c 0
 217 12 254 62 268 122 c 0
 289 216 319 308 319 350 c 0
 319 391 295 419 260 419 c 0
 209 419 155.219 367.918 132 306 c 0
 127.18 293.148 126.032 278 110 278 c 0
 103 278 96 281.22 96 290 c 0
 96 320 158 442 263 442 c 0
 295 442 345 430 371 370 c 1
 380 385 416 442 483 442 c 0
 518 442 582 429 582 378 c 0
 582 352 562 326 533 326 c 0
 513 326 499 339 499 358 c 0
 499 377 512 397 536 404 c 1
 531 407 514 419 482 419 c 0
 430 419 393 368 379 308 c 0
 354 199 328 121 328 81 c 0
 328 42 349 12 387 12 c 0
 426 12 486 46 515 125 c 0
 520.949 138.385 520.39 153 537 153 c 0
 544 153 551 149.327 551 141 c 0
 551 106 484 -11 385 -11 c 0
 326 -11 293 24 277 60 c 1
 266 45 232 -11 164 -11 c 0
 129 -11 66 1 66 52 c 0
EndSplineSet
EndChar
StartChar: afii10090
Encoding: 1096 1096 15
Width: 818
Flags: HMW
TeX: 0 0 0 0
HStem: -11 23<252.5 320.2 466 551.5 729.5 762> 419 23<168 233.5>
VStem: 155 62<59.5 156.5> 230 56<337 402.5> 408 59<65 76> 655 59<51 67>
Back
408.087 64.3478 m 1
 408.087 64.3479 l 1
 387.612 35.3922 359.987 9.66744 326.348 -2.8956 c 0
 304.475 -11.0643 281.13 -12.6843 258.087 -9.86343 c 0
 230.903 -6.53821 203.973 3.66614 184.748 23.7857 c 0
 174.698 34.3022 167.375 47.1444 162.677 60.8696 c 0
 153.129 88.6957 154.128 119.534 158.932 148.261 c 0
 162.636 170.416 168.853 192.077 175.58 213.478 c 0
 183.304 238.179 191.935 262.609 200.696 286.957 c 2
 212.66 319.565 l 2
 219.256 337.532 225.478 355.787 228.357 374.783 c 0
 229.475 382.174 230.134 389.902 229.215 397.387 c 0
 228.522 402.574 226.966 407.755 223.483 411.739 c 0
 215.043 421.403 200.418 419.092 189.826 414.953 c 0
 187.745 414.14 185.713 413.202 183.739 412.155 c 0
 181.333 410.87 178.956 409.441 176.783 407.826 c 0
 164.609 399.324 154.983 387.362 147.217 374.783 c 0
 135.64 355.777 127.474 334.672 120.802 313.478 c 2
 114.356 291.739 l 2
 112.514 286.218 109.73 280.838 103.819 278.834 c 0
 101.444 278.029 98.8808 277.775 96.3477 277.826 c 0
 94.5925 277.969 92.7925 278.248 91.0938 278.834 c 0
 89.9655 279.224 88.8812 279.751 87.909 280.435 c 0
 80.4334 285.794 84.1738 296.756 86.2399 303.913 c 2
 87.6521 308.696 l 1
 89.7286 315.217 l 2
 97.0834 337.787 106.348 359.816 118.956 380 c 0
 126.627 392.262 135.469 403.913 146.043 413.836 c 0
 155.887 423.043 167.205 430.87 179.826 435.782 c 0
 202.849 444.684 230.458 443.571 251.55 430.133 c 0
 257.471 426.361 262.809 421.684 267.362 416.342 c 0
 272.709 410 276.961 402.887 279.974 395.217 c 0
 283.983 385.011 285.886 373.988 286.069 363.043 c 0
 286.348 342.932 280.199 324.284 273.304 305.652 c 2
 260.22 269.565 l 2
 249.072 238.467 238.087 207.189 229.747 175.217 c 0
 223.831 152.713 218.956 129.782 217.423 106.522 c 0
 215.439 76.6422 219.344 40.7857 245.913 22.1739 c 0
 249.826 19.5287 254.081 17.31 258.522 15.6457 c 0
 264.506 13.403 270.848 12.1661 277.217 11.7391 c 0
 283.016 11.3043 288.852 11.6639 294.609 12.4304 c 0
 333.458 17.6043 363.641 45.5087 385.282 76.5217 c 0
 389.703 82.857 393.838 89.3944 397.652 96.087 c 0
 400.596 101.119 403.46 106.255 405.421 111.739 c 0
 408.309 119.819 409.05 128.574 410.696 136.957 c 0
 412.97 148.5 415.913 159.895 418.793 171.304 c 2
 455.315 317.391 l 1
 469.337 373.478 l 1
 473.701 390.87 l 2
 475.043 396.172 476.443 401.524 478.753 406.507 c 0
 484.174 418.26 495.143 427.366 508.087 429.374 c 0
 520.696 431.304 534.126 425.437 538.783 412.987 c 0
 539.714 410.435 540.22 407.826 540.369 405.216 c 0
 540.892 395.872 537.652 386.354 535.424 377.391 c 2
 524.446 333.478 l 1
 489.391 193.478 l 1
 479.556 153.913 l 2
 475.229 136.522 471.097 119.085 468.899 101.304 c 0
 468.31 96.5217 467.849 91.7391 467.578 86.9565 c 0
 467.364 83.1926 467.217 79.4217 467.3 75.6521 c 0
 467.442 56.4434 470.51 34.7287 485.794 21.3895 c 0
 487.978 19.483 490.356 17.796 492.869 16.4039 c 0
 504.4 10.1104 518.203 11.0704 530.696 13.1991 c 0
 560.48 18.2608 586.783 34.423 608.491 55.0452 c 0
 622.799 68.68 635.38 84.05 646.348 100.435 c 0
 651.809 108.463 657.37 116.72 661.13 125.652 c 0
 665.461 135.652 667.456 146.824 670.098 157.391 c 2
 683.141 209.565 l 1
 713.576 331.304 l 1
 725.424 378.696 l 2
 727.886 388.545 729.684 399.13 734.38 408.232 c 0
 740.226 419.546 751.39 428.063 764.174 429.551 c 0
 776.348 430.977 789.093 424.943 793.565 412.987 c 0
 794.547 410.36 795.043 407.579 795.173 404.781 c 0
 795.551 395.652 792.435 386.522 790.261 377.826 c 2
 779.663 335.217 l 1
 724.014 112.609 l 2
 718.957 92.5387 714.266 72.1026 714.278 51.3043 c 0
 714.284 41.3043 715.135 30.4348 721.097 22.1043 c 0
 722.676 19.8926 724.591 17.9178 726.783 16.3343 c 0
 728.522 15.0835 730.475 14.0861 732.508 13.3882 c 0
 747.207 8.34041 760.861 19.1095 769.357 30 c 0
 776.444 39.2052 781.551 49.8048 785.913 60.4348 c 0
 793.021 77.3322 798.224 94.96 803.004 112.609 c 0
 805.421 121.534 807.321 130.695 810.205 139.482 c 0
 811.565 143.642 813.528 147.799 817.294 150.293 c 0
 824.147 154.783 837.01 153.852 840.06 145.103 c 0
 842 139.359 839.826 132.594 838.435 126.957 c 0
 835.38 114.711 832 102.514 828.411 90.4348 c 0
 822.19 69.8843 814.961 49.3 803.739 30.8696 c 0
 796.271 18.5369 786.783 7.16564 774.603 -0.706964 c 0
 743.459 -20.7522 699.391 -10.4496 675.913 16.6361 c 0
 663.543 30.8696 657.49 48.4735 655.043 66.9565 c 1
 641.703 52.0465 627.954 37.7796 612 25.6165 c 0
 602.321 18.2374 592 11.6174 581.13 6.08695 c 0
 573.15 2.15087 564.853 -1.21305 556.348 -3.92696 c 0
 549.939 -5.97174 543.406 -7.62261 536.783 -8.80479 c 0
 501.565 -15.0826 460.696 -10 434.039 15.743 c 0
 430.339 19.303 426.985 23.2156 424.02 27.3913 c 0
 416.135 38.5587 411.737 51.1948 408.522 64.3478 c 1
 408.087 64.3478 l 1
EndSplineSet
Fore
83 290 m 0
 83 308 125 442 211 442 c 0
 256 442 286 407 286 362 c 0
 286 312 217 187 217 94 c 0
 217 25 256 12 283 12 c 0
 357.4 12 403.708 101.538 407 118 c 2
 410 134 l 2
 412 146 472 391 479 407 c 0
 483 417 496 430 513 430 c 0
 523 430 540 424 540 402 c 0
 540 370.592 467 136.47 467 76 c 0
 467 22 495 12 514 12 c 0
 589 12 649 96 661 126 c 0
 666 137 662 126 725 379 c 0
 728 390 734 430 768 430 c 0
 781 430 795 421 795 405 c 0
 796 396 792 387 790 378 c 2
 724 113 l 2
 719 93 714 72 714 51 c 0
 714 18 730 12 740 12 c 0
 784 12 803 118 810 139 c 0
 813 149 820 153 826 153 c 0
 832 153 841 150 841 140 c 0
 841 132 825 67 804 31 c 0
 796 19 777 -11 738 -11 c 0
 721 -11 664 -3 655 67 c 1
 630 38 581 -11 509 -11 c 0
 423 -11 410 56 408 65 c 1
 362 -2 308 -11 279 -11 c 0
 226 -11 155 13 155 109 c 0
 155 204 230 333 230 390 c 0
 230 415 216 419 207 419 c 0
 151 419 124 325 114 292 c 0
 111 281 104 278 97 278 c 0
 92 278 83 280 83 290 c 0
EndSplineSet
EndChar
StartChar: afii10091
Encoding: 1097 1097 16
Width: 823
Flags: HMW
TeX: 0 0 0 0
HStem: -203 21<694 700.5> -11 23<252.5 320 465 531 715 741> 419 23<167.5 233.5>
VStem: 155 62<59.5 156> 230 56<335 402.5> 408 59<65 75> 651 58<40 63>
Back
408.087 64.3478 m 1
 408.087 64.3478 l 1
 387.612 35.3921 359.987 9.6669 326.348 -2.89571 c 0
 304.475 -11.064 281.13 -12.6848 258.087 -9.86353 c 0
 230.903 -6.53831 203.974 3.66603 184.748 23.7856 c 0
 174.698 34.3021 167.375 47.1443 162.677 60.8695 c 0
 153.081 88.9043 154.135 119.836 158.957 148.696 c 0
 162.743 170.85 168.957 192.51 175.717 213.913 c 0
 183.539 238.696 192.19 263.336 201.057 287.826 c 2
 212.82 320 l 2
 219.391 338.09 225.731 356.506 228.486 375.652 c 0
 229.534 382.938 230.133 390.435 229.16 397.821 c 0
 228.47 403.012 226.76 408.172 223.178 412.103 c 0
 214.609 421.494 199.909 418.992 189.391 414.781 c 0
 187.309 413.913 185.277 412.989 183.304 411.923 c 0
 180.898 410.62 178.522 409.13 176.348 407.565 c 0
 163.869 398.63 154.028 386.087 146.23 373.043 c 0
 135.018 354.204 127.051 333.478 120.53 312.609 c 2
 115.16 294.348 l 2
 113.047 287.322 110.112 280.211 102.227 278.384 c 0
 99.9143 277.826 97.4852 277.74 95.127 277.98 c 0
 93.4917 278.146 91.8617 278.493 90.3378 279.119 c 0
 89.2422 279.565 88.2035 280.163 87.2922 280.87 c 0
 81.0404 286.087 83.9096 295.571 85.7474 302.174 c 2
 87.0061 306.522 l 1
 88.7496 312.174 l 1
 91.1304 319.565 l 2
 98.9209 342.547 108.879 364.976 122.34 385.217 c 0
 131.565 399.13 142.547 412.02 155.913 422.174 c 0
 165.218 429.238 175.478 434.783 186.783 438.145 c 0
 208.957 444.643 234.484 441.99 253.707 428.696 c 0
 259.07 424.994 263.908 420.534 268.061 415.51 c 0
 273.181 409.315 277.217 402.277 280.143 394.783 c 0
 284.5 383.478 286.341 371.203 286.054 359.13 c 0
 285.605 340.235 279.643 322.768 273.19 305.217 c 2
 259.908 268.696 l 2
 248.772 237.602 237.871 206.324 229.519 174.348 c 0
 223.677 151.98 218.89 129.13 217.395 106.087 c 0
 215.47 76.3274 219.477 40.693 245.913 22.1739 c 0
 249.826 19.5287 254.081 17.31 258.522 15.6456 c 0
 264.507 13.403 270.848 12.1661 277.217 11.7391 c 0
 283.017 11.3043 288.852 11.6639 294.609 12.4304 c 0
 333.274 17.58 363.304 45.2174 384.978 76.087 c 0
 389.514 82.5574 393.739 89.2409 397.652 96.087 c 0
 400.597 101.119 403.46 106.255 405.421 111.739 c 0
 408.31 119.819 409.05 128.574 410.696 136.957 c 0
 412.87 148.354 415.869 159.565 418.685 170.87 c 2
 454.554 314.348 l 1
 469.228 373.043 l 1
 473.701 390.87 l 2
 475.139 396.479 476.608 402.147 479.164 407.371 c 0
 485.411 420.138 498.409 429.565 512.87 429.776 c 0
 523.999 429.906 534.792 423.657 538.783 412.987 c 0
 539.826 410.087 540.37 406.957 540.414 403.912 c 0
 540.551 394.348 537.217 384.783 534.989 375.652 c 2
 523.685 330.435 l 1
 489.12 192.174 l 1
 479.391 153.478 l 2
 475.044 135.837 470.88 118.079 468.741 100 c 0
 468.177 95.2174 467.745 90.4348 467.509 85.6522 c 0
 467.33 82.0322 467.217 78.4065 467.309 74.7826 c 0
 467.548 55.6522 470.808 34.1443 486.194 21.0443 c 0
 488.392 19.1304 490.78 17.5248 493.304 16.1722 c 0
 504.743 10.1191 518.369 11.0987 530.696 13.1991 c 0
 560.261 18.2395 586.509 34.2065 608.061 54.6356 c 0
 622.421 68.2478 635.044 83.6143 646.113 100 c 0
 651.565 108.161 657.304 116.522 661.131 125.652 c 0
 665.461 135.652 667.456 146.824 670.098 157.391 c 2
 683.141 209.565 l 1
 713.141 329.565 l 1
 725.478 379.13 l 2
 728.071 389.284 729.902 400.299 735.044 409.52 c 0
 742.304 422.415 756.96 431.46 771.997 429.528 c 0
 785.268 427.823 795.185 416.893 795.2 403.478 c 0
 795.211 394.348 792.173 385.217 789.989 376.522 c 2
 779.228 333.478 l 1
 729.663 135.217 l 2
 725.818 119.837 722.131 104.348 717.892 89.1304 c 0
 714.791 77.9534 711.864 66.7152 710.215 55.2174 c 0
 709.229 48.3378 708.522 41.2952 709.173 34.3478 c 0
 709.476 30.8443 710.112 27.32 711.455 24.0534 c 0
 712.255 22.1074 713.305 20.2617 714.609 18.6374 c 0
 723.276 8.19561 738.957 12.0547 749.391 17.3556 c 0
 751.332 18.3456 753.216 19.4452 755.04 20.6352 c 0
 773.304 32.5734 786.08 52.0439 794.716 71.7391 c 0
 796.9 76.7213 798.818 81.7391 800.589 86.9491 c 0
 801.983 90.9947 803.213 95.2174 805.567 98.8917 c 0
 807.122 101.28 809.273 103.314 812 104.238 c 0
 817.136 105.963 822.659 103.261 824.427 98.1621 c 0
 825.626 94.7039 825.136 90.8695 824.474 87.3821 c 0
 823.567 82.5634 822.287 77.8091 821.13 73.0434 c 0
 818.779 63.2174 816.457 53.3782 814.423 43.4782 c 0
 812.87 36.013 811.416 28.4765 810.814 20.8695 c 0
 808.957 -1.86916 817.994 -23.6835 823.878 -45.2174 c 0
 830.647 -70 833.062 -97.0096 821.643 -120.87 c 0
 819.748 -124.829 817.485 -128.609 814.891 -132.174 c 0
 812.435 -135.43 809.809 -138.501 806.918 -141.358 c 0
 783.234 -164.783 748.627 -170.235 721.565 -188.414 c 2
 716.348 -192.174 l 2
 711.391 -195.837 706.348 -200.955 700.261 -202.728 c 0
 695.41 -204.157 690.223 -201.83 688.409 -196.957 c 0
 685.694 -189.637 692.435 -182.42 696.783 -177.391 c 0
 709.132 -163.252 721.94 -149.576 733.997 -135.217 c 0
 744.063 -123.229 753.863 -110.943 762.433 -97.8261 c 0
 768.957 -87.8283 774.917 -77.2213 778.087 -65.6522 c 0
 780.891 -55.7526 781.697 -45.4443 782.119 -35.2174 c 0
 782.794 -18.8339 782 -2.45174 783.304 13.913 c 1
 770.896 3.6113 757.999 -5.65435 742 -9.2887 c 0
 723.596 -13.4783 703.018 -10.3296 686.783 -0.670002 c 0
 676.99 5.16304 668.695 13.3804 662.67 23.0435 c 0
 655.23 35.0017 652.166 48.343 650.696 62.1739 c 1
 650.261 62.1739 l 1
 617.947 23.79 573.061 -6.59044 522 -10.7117 c 0
 513.467 -11.4004 504.871 -11.3617 496.348 -10.5465 c 0
 467.75 -7.82609 439.684 4.32174 423.121 28.6957 c 0
 415.758 39.5452 411.565 51.7187 408.522 64.3478 c 1
 408.087 64.3478 l 1
EndSplineSet
Fore
83 290 m 0
 83 307 124 442 211 442 c 0
 256 442 286 407 286 362 c 0
 286 308 217 191 217 94 c 0
 217 25 256 12 283 12 c 0
 357 12 404 102 407 118 c 2
 410 134 l 2
 412 146 472 391 479 407 c 0
 483 417 496 430 513 430 c 0
 527 430 540 420 540 404 c 0
 540 376 467 140 467 75 c 0
 467 40 480 12 514 12 c 0
 541 12 595 24 646 100 c 0
 664 126 663 130 670 157 c 0
 733 408 730 400 735 410 c 0
 742 421 754 430 768 430 c 0
 777 430 795 424 795 402 c 0
 795 392 794 392 730 135 c 0
 714 69 709 59 709 40 c 0
 709 16 722 12 730 12 c 0
 752 12 782 33 801 87 c 0
 805 101 811 105 815 105 c 0
 817 105 825 103 825 94 c 0
 825 82 811 40 811 15 c 0
 811 -20 830 -44 830 -84 c 0
 830 -161 756 -162 716 -192 c 0
 711 -196 704 -203 697 -203 c 0
 691 -203 688 -200 688 -195 c 0
 688 -190 691 -184 697 -177 c 0
 800 -57 776 -78 783 14 c 1
 765 -2 749 -11 726 -11 c 0
 704 -11 657 -1 651 63 c 1
 607 11 554 -11 508 -11 c 0
 422 -11 410 59 408 65 c 1
 384 30 343 -11 279 -11 c 0
 226 -11 155 13 155 109 c 0
 155 203 230 333 230 390 c 0
 230 415 216 419 207 419 c 0
 189 419 148 406 118 303 c 0
 112 284 110 278 98 278 c 0
 90 278 83 282 83 290 c 0
EndSplineSet
EndChar
StartChar: afii10093
Encoding: 1099 1099 17
Width: 664
Flags: HW
TeX: 0 0 0 0
HStem: -11 23<233.5 318.5 562 608> 278 23<320.5 374.5> 419 22<192.5 231.5>
VStem: 152 59<59.5 144> 229 57<348.5 402.5> 392 71<133 234.5> 501 60<35 86>
Back
262 274.783 m 1
 262 274.783 l 1
 280.556 286.671 300.506 296.081 322.435 299.565 c 0
 350.925 304.1 381.9 298.696 406.783 284.006 c 0
 422.87 274.434 436.503 260.87 446.07 244.783 c 0
 452.822 233.388 457.472 220.803 460.07 207.826 c 0
 471.524 150.631 444.974 91.3044 405.31 50.95 c 0
 382.72 27.9552 355.044 9.6509 324.609 -1.03345 c 0
 305.385 -7.82606 285.024 -11.6174 264.609 -11.1508 c 0
 249.107 -10.7965 233.689 -7.82606 219.391 -1.7391 c 0
 208.457 2.91786 198.353 9.39047 189.517 17.3235 c 0
 182.4 23.7144 176.228 31.0913 171.054 39.1305 c 0
 166.742 45.8313 163.16 52.9705 160.373 60.4348 c 0
 152.137 82.4931 150.593 106.366 153.846 129.565 c 0
 155.686 142.684 159.17 155.497 162.631 168.261 c 0
 166.424 182.174 170.497 196.087 174.765 210 c 0
 178.957 223.825 183.478 237.598 188.087 251.304 c 0
 193.856 268.261 199.819 285.217 205.913 302.174 c 0
 214.174 325.101 223.387 348.01 227.399 372.174 c 0
 229.166 382.819 230.797 395.183 226.783 405.523 c 0
 226.048 407.478 225.044 409.345 223.739 411.012 c 0
 214.985 422.526 197.579 418.696 186.348 413.45 c 0
 184.103 412.389 181.928 411.183 179.826 409.858 c 0
 177.109 408.143 174.516 406.233 172 404.181 c 0
 161.745 395.643 153.487 384.882 146.603 373.478 c 0
 136.758 357.171 129.391 339.316 123.385 321.304 c 0
 121.057 314.348 118.953 307.391 116.941 300.435 c 0
 115.478 295.449 114.338 290.185 111.945 285.548 c 0
 110.234 282.174 107.652 279.444 104.174 277.984 c 0
 95.8418 274.489 84.5309 278.019 83.51 287.97 c 0
 82.9474 293.457 84.8187 299.13 86.3109 304.348 c 0
 88.8735 313.296 91.7909 322.149 95.0435 330.87 c 0
 104.784 356.957 117.612 382.75 135.988 403.89 c 0
 147.556 417.198 161.565 428.696 178.087 435.358 c 0
 205.044 446.2 237.974 442.952 260.054 423.124 c 0
 265.289 418.424 269.821 412.949 273.496 406.952 c 0
 281.13 394.444 284.856 379.796 285.475 365.217 c 0
 285.913 353.66 284.405 342.03 281.432 330.87 c 0
 279.188 322.444 276.086 314.273 273.108 306.087 c 0
 269.323 295.652 265.478 285.217 262 274.783 c 1
611.565 429.565 m 2
 611.565 429.565 l 2
 623.679 430.854 636.111 424.78 640.522 412.987 c 0
 641.504 410.361 642 407.579 642.129 404.781 c 0
 642.508 395.652 639.391 386.522 637.218 377.826 c 2
 626.62 335.217 l 1
 571.131 113.478 l 2
 566.12 93.1284 561.131 72.3997 561.23 51.3045 c 0
 561.244 41.5192 562 30.804 567.758 22.4944 c 0
 569.479 19.9901 571.565 17.7723 574.137 16.0536 c 0
 576.151 14.6753 578.388 13.634 580.696 12.9836 c 0
 595.893 8.79532 609.287 20.4349 617.594 31.7392 c 0
 619.031 33.7366 620.381 35.7605 621.658 37.8262 c 0
 627.218 46.8536 631.547 56.6518 635.376 66.5218 c 0
 641.368 81.9697 646.008 97.9257 650.261 113.913 c 2
 656.259 136.496 l 2
 657.642 141.304 659.363 146.642 663.581 149.821 c 0
 669.557 154.324 680.9 154.305 685.587 147.826 c 0
 687.089 145.789 687.652 143.261 687.741 140.739 c 0
 687.86 135.217 686.083 129.565 684.732 124.348 c 0
 682.542 115.767 680.247 107.208 677.803 98.6958 c 0
 675.794 91.6988 673.668 84.7345 671.372 77.8262 c 0
 669.624 72.5688 667.779 67.3427 665.783 62.174 c 0
 655.02 34.3027 638.294 3.58445 608.522 -7.18989 c 0
 604.44 -8.69555 600.208 -9.70598 595.913 -10.3277 c 0
 564.982 -14.7825 533.11 -0.549025 516.104 25.6523 c 0
 507.035 39.5653 502.527 56.0679 501.565 72.6088 c 0
 500.597 90.1475 504.469 106.957 508.685 123.913 c 2
 519.12 165.652 l 1
 558.902 324.783 l 1
 571.837 376.522 l 2
 574.435 386.914 576.272 398.167 581.117 407.802 c 0
 586.977 419.457 598.438 428.241 611.565 429.565 c 2
335.913 278.224 m 1
 335.913 278.224 l 1
 309.502 276.957 284.804 262.582 265.478 245.361 c 0
 258.087 238.803 250.631 231.592 245.589 223.043 c 0
 242.248 217.379 240.346 211.027 238.414 204.783 c 2
 231.789 182.609 l 2
 224.344 156.957 216.874 130.854 213.228 104.348 c 0
 209.653 78.3553 210.082 48.4862 229.247 28.2327 c 0
 232 25.2175 235.178 22.6014 238.522 20.3383 c 0
 242.711 17.5849 247.217 15.4618 252 14.0262 c 0
 257.902 12.174 264.104 11.5001 270.261 11.6888 c 0
 286.618 12.174 302.271 19.0692 315.478 28.4031 c 0
 321.326 32.5362 326.751 37.2479 331.787 42.334 c 0
 337.814 48.4214 343.285 55.057 348.055 62.174 c 0
 366.348 89.5649 374.17 122.328 381.928 153.913 c 0
 385.278 167.55 388.522 181.282 390.372 195.217 c 0
 393.495 218.871 392.617 245.744 374.821 263.804 c 0
 372.124 266.522 369.12 268.978 365.86 271.015 c 0
 361.971 273.445 357.729 275.217 353.304 276.482 c 0
 347.649 278.014 341.756 278.504 335.913 278.224 c 1
EndSplineSet
Fore
83 290 m 0
 83 298 101 363 136 404 c 0
 151 421 175 441 210 441 c 0
 253 441 286 409 286 361 c 0
 286 336 279 326 262 275 c 1
 283 288 310 301 342 301 c 0
 407 301 463 255 463 180 c 0
 463 86 369 -11 268 -11 c 0
 199 -11 152 39 152 107 c 0
 152 181 229 340 229 390 c 0
 229 415 216 419 207 419 c 0
 189 419 148 407 117 300 c 0
 112 282 104 276 98 276 c 0
 90 276 83 284 83 290 c 0
501 78 m 0
 501 94 505 109 509 124 c 2
 572 377 l 2
 576 394 581 430 615 430 c 0
 628 430 642 421 642 405 c 0
 642 396 639 387 637 378 c 2
 571 113 l 2
 566.018 92.9956 561 72 561 51 c 0
 561 19 577 12 587 12 c 0
 629 12 649 110 656 136 c 0
 660 150 667 153 673 153 c 0
 679 153 688 151 688 140 c 0
 688 132 676 89 666 62 c 0
 645 8 617 -11 585 -11 c 0
 539 -11 501 25 501 78 c 0
211 81 m 0
 211 38 234 12 269 12 c 0
 300 12 331 37 348 62 c 0
 373 100 392 186 392 215 c 0
 392 254 371 278 339 278 c 0
 302 278 259 246 246 223 c 0
 240 214 211 124 211 81 c 0
EndSplineSet
EndChar
StartChar: afii10096
Encoding: 1102 1102 18
Width: 723
Flags: HW
TeX: 0 0 0 0
HStem: -11 23<438 548.5> 230 23<243 358> 418 24<158.5 205 546 636.5>
VStem: 210 59<343 395.5> 339 70<82.5 166.5> 668 71<205 348>
Back
242.87 230.435 m 1
 242.87 230.435 l 1
 238.782 212.69 234.174 195.057 229.772 177.391 c 2
 208.087 90.8695 l 1
 196.185 43.0435 l 2
 193.739 33.3582 191.938 23.1317 187.998 13.913 c 0
 183.181 2.60867 173.541 -6.41785 161.565 -9.56524 c 0
 148.508 -12.9109 133.609 -8.09829 127.908 4.87171 c 0
 126.783 7.32519 126.175 9.9478 125.906 12.6087 c 0
 125.362 18.0204 126.348 23.4391 127.571 28.6956 c 2
 131.511 44.7826 l 1
 145.424 100.435 l 1
 193.25 291.739 l 2
 199.205 315.556 206.168 339.425 208.734 363.913 c 0
 210.014 376.087 210.696 389.545 206.348 401.269 c 0
 205.272 404.347 203.705 407.278 201.565 409.82 c 0
 200.015 411.739 198.087 413.478 195.913 414.783 c 0
 194.174 415.955 192.24 416.82 190.204 417.391 c 0
 176.618 421.232 164.165 412.023 156 402.059 c 0
 148.219 392.564 142.788 381.283 138.087 370 c 0
 131.081 352.953 125.855 335.183 121.066 317.391 c 2
 116.742 300.87 l 2
 115.672 296.706 114.708 292.445 113.083 288.453 c 0
 111.647 284.925 109.492 281.672 106.073 279.813 c 0
 98.5219 275.652 85.4784 277.506 83.7093 287.246 c 0
 82.7645 292.311 84.3619 297.719 85.5637 302.609 c 0
 87.5671 310.758 89.7297 318.873 91.9819 326.956 c 0
 98.7502 351.247 106.348 375.975 119.263 397.826 c 0
 127.078 411.113 137.055 423.47 150.261 431.706 c 0
 175.84 447.649 211.312 443.276 235.011 425.746 c 0
 248.161 416.019 257.938 402.312 263.448 386.957 c 0
 269.391 370.335 270.481 352.174 268.087 334.783 c 0
 266.536 323.307 263.446 312.088 260.641 300.87 c 0
 256.654 284.917 252.805 268.921 248.522 253.043 c 1
 358.087 253.043 l 1
 362.424 263.913 367.061 274.767 372.435 285.217 c 0
 395.768 330.252 429.469 370.309 471.131 399.384 c 0
 496.756 417.267 525.649 431.23 556.348 437.694 c 0
 574.747 441.569 593.739 442.782 612.435 440.407 c 0
 627.33 438.514 641.915 434.348 655.478 427.826 c 0
 666.291 422.736 676.348 416.054 685.458 408.229 c 0
 692.962 401.739 699.747 394.457 705.689 386.521 c 0
 710.423 380.199 714.609 373.478 718.367 366.522 c 0
 747.165 312.372 742.808 246.087 723.902 189.565 c 0
 705.023 133.043 669.826 81.7391 623.739 44.0287 c 0
 595.913 21.3043 563.832 3.47826 528.957 -5.46608 c 0
 510.59 -10.1896 491.365 -12.1739 472.435 -10.7148 c 0
 456.881 -9.47217 441.565 -5.88391 427.217 0.256525 c 0
 415.462 5.21739 404.503 12.0848 394.609 20.1939 c 0
 386.007 27.2709 378.327 35.4004 371.678 44.3478 c 0
 347.652 76.6696 337.652 117.966 338.738 157.826 c 0
 339.134 173.006 340.838 188.14 343.733 203.043 c 0
 345.478 212.266 347.896 221.304 350.261 230.435 c 1
 242.87 230.435 l 1
587.218 418.696 m 1
 587.217 418.696 l 1
 572.734 417.826 558.774 413.24 545.913 406.675 c 0
 525.017 396.007 507.024 380.328 491.793 362.608 c 0
 457.217 322.457 439.815 271.739 426.772 221.304 c 0
 419.651 193.746 413.019 165.781 410.261 137.391 c 0
 406.881 101.037 409.826 58.97 437.139 31.633 c 0
 440.696 28.0274 444.682 24.7639 448.957 22.0017 c 0
 454.174 18.623 459.924 16.0082 465.913 14.2839 c 0
 473.237 12.1739 480.914 11.3043 488.522 11.6235 c 0
 503.404 12.1513 517.903 16.7122 531.131 23.3839 c 0
 552.106 33.913 570.261 49.6622 585.478 67.3913 c 0
 620.426 107.943 638.017 158.98 651.131 210 c 0
 658.343 237.969 665.044 266.382 667.564 295.217 c 0
 670.676 331.293 667.204 372.747 639.826 399.526 c 0
 636.039 403.28 631.805 406.625 627.21 409.4 c 0
 621.938 412.584 616.216 414.989 610.261 416.522 c 0
 602.759 418.531 594.952 419.13 587.218 418.696 c 1
EndSplineSet
Fore
83 290 m 0
 83 298 98 362 119 398 c 0
 137 428 160 442 186 442 c 0
 224 442 269 413 269 352 c 0
 269 334 264 311 249 253 c 1
 358 253 l 1
 402 364 499 442 593 442 c 0
 680 442 739 372 739 278 c 0
 739 132 612 -11 485 -11 c 0
 391 -11 339 67 339 152 c 0
 339 181 344 207 350 230 c 1
 243 230 l 1
 243 230 192 24 188 14 c 0
 184 4 171 -11 153 -11 c 0
 140 -11 126 -2 126 16 c 0
 126 26 130 36 132 45 c 2
 193 292 l 2
 200 321 210 355 210 379 c 0
 210 412 194 418 184 418 c 0
 134 418 120 288 108 281 c 0
 104 279 100 278 97 278 c 0
 90 278 83 282 83 290 c 0
409 114 m 0
 409 51 440 12 486 12 c 0
 506 12 545 20 585 67 c 0
 638 129 668 258 668 316 c 0
 668 380 638 419 591 419 c 0
 571 419 532 410 492 363 c 0
 439 301 409 170 409 114 c 0
EndSplineSet
EndChar
StartChar: afii10097
Encoding: 1103 1103 19
Width: 537
Flags: HW
TeX: 0 0 0 0
HStem: -11 23<101.5 148 433 481> 43 80<88 117> 408 22<334 501>
VStem: 56 85<38 100.5> 189 75<277 345> 374 60<35 90>
Back
307.739 230.87 m 1
 307.739 230.87 l 1
 299.732 231.566 291.745 232.41 283.826 233.81 c 0
 277.674 234.898 271.571 236.281 265.565 238.006 c 0
 260.709 239.401 255.917 241.022 251.217 242.88 c 0
 222.174 254.348 192.957 277.223 189.663 310.435 c 0
 188.986 317.257 189.451 324.177 190.921 330.87 c 0
 192.816 339.491 196.348 347.7 200.945 355.217 c 0
 207.26 365.543 215.521 374.565 224.696 382.391 c 0
 239.315 394.783 256.158 404.348 273.826 411.712 c 0
 295.911 420.87 319.178 426.609 342.957 429.014 c 0
 357.711 430.435 372.494 430.435 387.304 430.435 c 2
 435.565 430.435 l 1
 486 430.435 l 1
 500.343 430.376 l 2
 504.12 430.289 508.096 430.157 511.637 428.696 c 0
 512.753 428.24 513.814 427.644 514.696 426.885 c 0
 521.493 421.444 518.304 411.387 516.585 404.348 c 2
 499.315 335.217 l 1
 453.337 151.304 l 2
 448.885 133.478 444.167 115.729 440.111 97.8261 c 0
 436 79.7335 432.61 60.7891 434.261 42.1739 c 0
 434.775 36.9565 435.752 31.7391 437.897 26.9565 c 0
 439.204 24.1235 440.954 21.4165 443.17 19.1274 c 0
 444.823 17.3913 446.724 15.9557 448.817 14.7826 c 0
 450.539 13.9 452.385 13.2074 454.261 12.7644 c 0
 467.582 9.67653 479.409 18.6617 487.38 28.3478 c 0
 495.13 37.8261 500.625 49.13 505.3 60.4348 c 0
 512.24 77.2174 517.42 94.657 522.087 112.174 c 2
 526.801 129.999 l 2
 527.905 134.289 528.888 138.696 530.655 142.781 c 0
 531.996 145.876 533.947 148.696 536.856 150.514 c 0
 543.616 154.705 555.915 153.787 559.141 145.471 c 0
 561.439 139.55 559.01 132.369 557.551 126.522 c 0
 554.261 113.478 550.783 100.602 546.87 87.8261 c 0
 545.019 81.8496 543.061 75.9022 540.981 70 c 0
 539.279 65.1713 537.468 60.3809 535.503 55.6522 c 0
 524.156 28.3374 506 -0.918699 475.565 -8.89348 c 0
 470.313 -10.2683 464.903 -10.9522 459.478 -11.0526 c 0
 451.297 -11.2044 443.034 -10.1839 435.13 -8.07261 c 0
 425.783 -5.57609 416.87 -1.43479 409.043 4.25478 c 0
 402.924 8.69565 397.424 14.0478 392.774 20 c 0
 377.096 40.2356 372.163 66.7261 374.849 91.7391 c 0
 376.417 106.345 380.545 120.57 384.098 134.783 c 2
 394.261 175.652 l 1
 407.304 227.391 l 1
 357.174 218.991 305.13 196.287 276.106 152.609 c 0
 271.314 145.406 267.304 137.661 264.261 129.565 c 0
 261.765 122.874 259.913 115.948 257.85 109.13 c 0
 255.677 102.174 253.146 95.3565 250.219 88.6956 c 0
 239.25 63.7291 222.645 40.8248 202.049 22.9383 c 0
 191.57 13.8387 179.913 5.85913 167.304 -4.76837e-06 c 0
 142.492 -11.457 109.913 -17.3548 85.5652 -1.57696 c 0
 81.8496 0.85043 78.3961 3.71695 75.3 6.92826 c 0
 69.913 12.4687 65.6978 19.0161 62.673 26.087 c 0
 60.2935 31.6491 58.6087 37.5174 57.6583 43.4783 c 0
 56.1074 52.6087 56 62.0504 57.1161 71.3043 c 0
 57.9835 78.6956 59.4783 86.163 62.4561 93.0396 c 0
 66.3839 102.174 72.9565 110 81.2174 115.515 c 0
 84.5213 117.639 88.0065 119.382 91.6522 120.685 c 0
 106.435 125.99 124.658 123.77 134.639 110.508 c 0
 136.267 108.346 137.598 105.964 138.58 103.442 c 0
 139.872 100.126 140.539 96.5217 140.693 93.043 c 0
 140.938 87.3913 139.913 81.7391 138.087 76.5217 c 0
 132.957 62.2657 121.217 50.6913 106.87 45.913 c 0
 100.659 43.8457 94.2383 43.3078 87.7391 43.0435 c 1
 89.223 37.1309 90.9683 31.3043 94.3748 26.2109 c 0
 96.4348 23.0435 98.9896 20.3 101.949 18.0183 c 0
 104.243 16.25 106.786 14.7826 109.478 13.7917 c 0
 112.087 12.8026 114.928 12.1739 117.739 12.017 c 0
 134.845 10.7352 149.414 21.7391 159.647 34.3478 c 0
 166.56 42.9548 171.898 52.6087 176.435 62.6087 c 0
 182.65 76.0652 187.432 90.137 191.546 104.348 c 0
 195.565 118.4 198.752 132.748 204.93 146.087 c 0
 224.253 187.814 265.312 215.815 307.739 230.435 c 1
 307.739 230.87 l 1
452.522 407.826 m 1
 452.522 407.826 l 1
 390.783 407.826 l 2
 379.478 407.826 368.116 408.172 356.87 406.956 c 0
 342.813 405.547 328.999 401.731 316.435 395.208 c 0
 306.822 390.216 297.978 383.705 290.783 375.509 c 0
 276.753 359.284 270.126 337.31 266.32 316.522 c 0
 264.162 304.74 262.732 291.172 268.113 280 c 0
 269.913 276.174 272.522 272.734 275.565 269.739 c 0
 278.477 266.925 281.652 264.497 285.13 262.465 c 0
 301.763 252.609 321.217 253.044 339.913 253.044 c 2
 413.826 253.044 l 1
 452.522 407.826 l 1
87.7391 43.4782 m 1
 87.3044 43.0434 l 1
 87.7391 43.4782 l 1
EndSplineSet
Fore
56 59 m 0
 56 109 87 123 107 123 c 0
 127 123 141 110 141 91 c 0
 141 76 132 45 88 43 c 1
 94 14 114 12 120 12 c 0
 176 12 193 120 205 146 c 0
 224 188 266 216 309 231 c 1
 241 238 189 265 189 317 c 0
 189 373 261 421 343 429 c 0
 358 430 372 430 387 430 c 2
 501 430 l 2
 515 430 519 425 519 418 c 0
 519 414 518 409 517 404 c 2
 453 151 l 2
 436 83 434 72 434 52 c 0
 434 18 449 12 460 12 c 0
 498.792 12 520.524 109.006 526 127 c 0
 532 149 535 153 545 153 c 0
 553 153 560 149 560 140 c 0
 560 132 545 80 536 56 c 0
 525 32 504 -11 458 -11 c 0
 408 -11 374 28 374 79 c 0
 374 101 378 109 407 227 c 1
 349 218 286 187 264 130 c 0
 261 121 245 37 167 -0 c 0
 153 -6 137 -11 121 -11 c 0
 82 -11 56 17 56 59 c 0
264 299 m 0
 264 255 313 253 332 253 c 0
 414 253 l 1
 453 408 l 1
 379 408 l 2
 289 408 273 354 266 317 c 0
 265 311 264 305 264 299 c 0
EndSplineSet
EndChar
StartChar: uni03D8
Encoding: 984 984 20
Width: 500
Flags: W
TeX: 0 0 0 0
HStem: 0 31<100 125 360 397> 670 25<348 468.5>
VStem: 146 84<387.5 497> 508 84<479.5 581>
Back
271.739 271.739 m 1
 271.739 271.739 l 1
 251.52 276.837 232.174 284.13 214.783 295.73 c 0
 203.729 303.044 193.634 311.838 184.783 321.739 c 0
 177.782 329.788 171.549 338.514 166.333 347.826 c 0
 162.124 355.339 158.535 363.207 155.608 371.304 c 0
 137.826 420.346 145.203 475.217 165.809 522.174 c 0
 175.613 544.505 188.595 565.37 203.89 584.348 c 0
 254.134 646.689 331.204 691.177 412.174 694.141 c 0
 436.077 695.016 460.293 692.114 483.043 684.604 c 0
 498.261 679.56 512.898 672.412 526.087 663.174 c 0
 536.46 655.909 545.949 647.389 554.23 637.805 c 0
 560.951 630 566.896 621.58 571.917 612.609 c 0
 597.466 566.957 597.309 511.861 581.456 463.043 c 0
 554.348 379.642 483.883 312.609 402.174 282.96 c 0
 388.981 278.172 375.48 274.558 361.739 271.739 c 1
 331.685 151.304 l 1
 310 65.2174 l 1
 310.151 57.097 309.756 48.3526 315.217 41.6931 c 0
 321.56 33.9131 332.442 32.6087 341.739 31.6104 c 0
 362.609 29.2965 383.799 29.5652 404.783 29.5652 c 1
 397.391 -1.30434 l 1
 363.343 -0.14825 329.284 0.869577 295.217 1.26219 c 0
 230.131 1.97305 165.047 0.869576 100 -1.30434 c 1
 107.391 29.1304 l 1
 107.826 29.5652 l 1
 128.113 29.5652 148.47 29.4909 168.696 31.2983 c 0
 179.722 32.2835 191.698 33.4783 201.16 39.7413 c 0
 210.336 45.8087 215.454 55.1496 219.13 65.2174 c 2
 228.207 96.9565 l 1
 239.511 142.174 l 1
 259.511 222.174 l 1
 271.739 271.739 l 1
409.565 668.696 m 1
 409.565 668.696 l 1
 369.561 666.454 334.442 643.28 308.106 614.323 c 0
 289.979 594.348 275.217 571.544 263.442 547.391 c 0
 244.682 509.118 232.814 466.957 230.435 424.348 c 0
 230.162 417.974 230 411.598 230.24 405.217 c 0
 231.383 371.574 239.565 334.783 266.223 311.874 c 0
 269.955 308.659 273.987 305.794 278.261 303.348 c 0
 283.995 300 290.15 297.565 296.522 295.834 c 0
 306.522 293.043 316.956 292.333 327.391 292.753 c 0
 366.926 294.348 401.948 317.035 428.261 345.217 c 0
 446.875 365.162 461.935 388.238 474.024 412.609 c 0
 493.43 451.731 505.652 494.994 507.772 538.696 c 0
 508.078 545.073 508.153 551.446 507.826 557.826 c 0
 506.52 591.304 498.024 627.75 471.222 650.263 c 0
 467.34 653.478 463.143 656.403 458.695 658.836 c 0
 452.609 662.128 446.222 664.581 439.565 666.224 c 0
 429.787 668.637 419.565 669.348 409.565 668.696 c 1
EndSplineSet
Fore
108 31 m 1
 125 31 l 2
 204 31 212 34 228 98 c 2
 272 273 l 1
 178 296 146 368 146 431 c 0
 146 563 276 695 420 695 c 0
 517 695 592 631 592 531 c 0
 592 428 507 302 362 273 c 1
 311 70 l 2
 310 66 310 65 310 64 c 0
 310 32 326 31 394 31 c 2
 405 31 l 1
 397 0 l 1
 355 1 312 2 255 2 c 0
 204 2 152 1 100 0 c 1
 108 31 l 1
508 550 m 0
 508 610 483 670 416 670 c 0
 309 670 230 523 230 413 c 0
 230 362 248 294 323 294 c 0
 426 294 508 435 508 550 c 0
EndSplineSet
EndChar
StartChar: afii10017
Encoding: 1040 1040 21
Width: 743
Flags: HW
TeX: 0 0 0 0
HStem: 0 31<660 678> 230 30<289 517> 696 20<539.5 558.5>
Back
288.739 229.565 m 1
 288.739 229.565 l 1
 267.266 190.421 244.661 151.876 222.629 113.043 c 0
 217 103.151 211.331 93.2564 207.245 82.6086 c 0
 204.185 74.6334 202.217 65.8508 204.479 57.3912 c 0
 208.119 43.4773 221.527 35.3425 234.826 32.553 c 0
 242.817 30.8695 254.613 31.3043 258.091 22.1673 c 0
 258.527 21.016 258.739 19.8008 258.873 18.5747 c 0
 259.036 16.4625 258.739 14.3195 258.136 12.2951 c 0
 257.681 10.7764 257 9.30861 256.211 7.95687 c 0
 250.792 -0.863995 239.86 0.285571 230.913 0.699484 c 2
 223.957 1.02122 l 2
 182.138 2.89035 140.137 3.47818 98.3045 1.73905 c 2
 90.4784 1.40992 l 1
 84.3914 1.10861 l 2
 76.3975 0.705571 64.3171 -1.1453 59.9497 7.60688 c 0
 59.4062 8.69557 59.0454 9.87035 58.8484 11.0704 c 0
 58.5771 12.7217 58.6158 14.3477 58.8719 16.0669 c 0
 59.1575 17.9086 59.7141 19.7151 60.4784 21.396 c 0
 65.5319 31.8577 78.0684 30.8695 87.8697 32.1738 c 0
 98.3045 33.4782 108.578 36.1851 118.304 40.2556 c 0
 151.305 54.0647 172.578 83.6256 190.164 113.478 c 0
 201.93 133.449 213.087 153.757 224.603 173.913 c 2
 282.218 275.217 l 1
 455.622 580 l 1
 517.435 688.696 l 2
 523.246 698.865 529.174 711.438 541.348 715.004 c 0
 543.624 715.652 545.96 715.994 548.293 716.053 c 0
 550.708 716.087 553.16 715.895 555.487 715.217 c 0
 556.829 714.783 558.13 714.298 559.324 713.572 c 0
 567.75 708.45 567.207 696.428 567.807 687.826 c 2
 568.304 680 l 1
 575.771 572.174 l 1
 607.33 113.913 l 1
 610.583 66.9565 l 2
 611.24 58.1569 611.749 48.2609 617.998 41.39 c 0
 623.087 35.7843 630.649 33.8656 637.87 32.7982 c 0
 646.058 31.5874 654.387 31.2509 662.652 31.0191 c 0
 667.537 30.8696 672.517 31.0604 677.363 30.3517 c 0
 679.971 29.97 682.581 29.2435 684.787 27.7535 c 0
 690.684 23.7722 691.015 15.8996 688.304 9.87521 c 0
 687.756 8.5726 687 7.33303 686.13 6.21912 c 0
 682.174 1.27347 675.998 0.392598 670.036 0.40912 c 0
 657.435 0.434772 644.807 1.40695 632.217 1.81564 c 0
 581.97 3.44521 531.588 2.91173 481.348 1.30303 c 2
 463.087 0.668685 l 2
 458.706 0.527816 454.117 0.235642 449.82 1.29564 c 0
 448.304 1.65564 446.94 2.1739 445.656 2.98173 c 0
 439.995 6.4526 439.174 13.4783 441.198 19.383 c 0
 441.702 20.8691 442.381 22.3009 443.254 23.6065 c 0
 449.164 32.4487 461.684 30.7578 470.913 31.2574 c 0
 482.543 31.887 494.347 33.2987 505.257 37.597 c 0
 512.217 40.3569 518.879 44.4956 523.321 50.7004 c 0
 528.977 58.6004 528.477 67.7348 527.87 76.9565 c 2
 526.115 102.609 l 2
 523.184 144.92 519.963 187.227 517.435 229.565 c 1
 288.739 229.565 l 1
492.652 587.391 m 1
 457.599 526.522 l 1
 402.194 429.13 l 1
 342.337 323.913 l 1
 306.565 260.435 l 1
 515.261 260.435 l 1
 500.988 467.826 l 1
 492.652 587.391 l 1
EndSplineSet
Refer: 22 65 N 1 0 0 1 0 0 2
EndChar
StartChar: A
Encoding: 65 65 22
Width: 743
Flags: MW
TeX: 0 0 0 0
HStem: 0 31<660 678> 230 30<289 517> 696 20G<539.5 558.5>
Back
288.739 229.565 m 1
 288.739 229.565 l 1
 267.266 190.421 244.661 151.876 222.629 113.043 c 0
 217 103.151 211.331 93.2564 207.245 82.6086 c 0
 204.185 74.6334 202.217 65.8508 204.479 57.3912 c 0
 208.119 43.4773 221.527 35.3425 234.826 32.553 c 0
 242.817 30.8695 254.613 31.3043 258.091 22.1673 c 0
 258.527 21.016 258.739 19.8008 258.873 18.5747 c 0
 259.036 16.4625 258.739 14.3195 258.136 12.2951 c 0
 257.681 10.7764 257 9.30861 256.211 7.95687 c 0
 250.792 -0.863995 239.86 0.285571 230.913 0.699484 c 2
 223.957 1.02122 l 2
 182.138 2.89035 140.137 3.47818 98.3045 1.73905 c 2
 90.4784 1.40992 l 1
 84.3914 1.10861 l 2
 76.3975 0.705571 64.3171 -1.1453 59.9497 7.60688 c 0
 59.4062 8.69557 59.0454 9.87035 58.8484 11.0704 c 0
 58.5771 12.7217 58.6158 14.3477 58.8719 16.0669 c 0
 59.1575 17.9086 59.7141 19.7151 60.4784 21.396 c 0
 65.5319 31.8577 78.0684 30.8695 87.8697 32.1738 c 0
 98.3045 33.4782 108.578 36.1851 118.304 40.2556 c 0
 151.305 54.0647 172.578 83.6256 190.164 113.478 c 0
 201.93 133.449 213.087 153.757 224.603 173.913 c 2
 282.218 275.217 l 1
 455.622 580 l 1
 517.435 688.696 l 2
 523.246 698.865 529.174 711.438 541.348 715.004 c 0
 543.624 715.652 545.96 715.994 548.293 716.053 c 0
 550.708 716.087 553.16 715.895 555.487 715.217 c 0
 556.829 714.783 558.13 714.298 559.324 713.572 c 0
 567.75 708.45 567.207 696.428 567.807 687.826 c 2
 568.304 680 l 1
 575.771 572.174 l 1
 607.33 113.913 l 1
 610.583 66.9565 l 2
 611.24 58.1569 611.749 48.2609 617.998 41.39 c 0
 623.087 35.7843 630.649 33.8656 637.87 32.7982 c 0
 646.058 31.5874 654.387 31.2509 662.652 31.0191 c 0
 667.537 30.8696 672.517 31.0604 677.363 30.3517 c 0
 679.971 29.97 682.581 29.2435 684.787 27.7535 c 0
 690.684 23.7722 691.015 15.8996 688.304 9.87521 c 0
 687.756 8.5726 687 7.33303 686.13 6.21912 c 0
 682.174 1.27347 675.998 0.392598 670.036 0.40912 c 0
 657.435 0.434772 644.807 1.40695 632.217 1.81564 c 0
 581.97 3.44521 531.588 2.91173 481.348 1.30303 c 2
 463.087 0.668685 l 2
 458.706 0.527816 454.117 0.235642 449.82 1.29564 c 0
 448.304 1.65564 446.94 2.1739 445.656 2.98173 c 0
 439.995 6.4526 439.174 13.4783 441.198 19.383 c 0
 441.702 20.8691 442.381 22.3009 443.254 23.6065 c 0
 449.164 32.4487 461.684 30.7578 470.913 31.2574 c 0
 482.543 31.887 494.347 33.2987 505.257 37.597 c 0
 512.217 40.3569 518.879 44.4956 523.321 50.7004 c 0
 528.977 58.6004 528.477 67.7348 527.87 76.9565 c 2
 526.115 102.609 l 2
 523.184 144.92 519.963 187.227 517.435 229.565 c 1
 288.739 229.565 l 1
492.652 587.391 m 1
 457.599 526.522 l 1
 402.194 429.13 l 1
 342.337 323.913 l 1
 306.565 260.435 l 1
 515.261 260.435 l 1
 500.988 467.826 l 1
 492.652 587.391 l 1
EndSplineSet
Fore
204 65 m 0
 204 22.5496 259 39.9192 259 19 c 0
 259 12 257 0 239 0 c 0
 230 0 203 3 150 3 c 0
 117 3 93 0 81 0 c 0
 65 0 59 3 59 14 c 0
 59 54 120 -5 190 113 c 2
 517 689 l 2
 523 698 530 716 549 716 c 0
 568 716 567 700 568 688 c 2
 611 67 l 2
 613 36 623 32 663 31 c 0
 675 31 690 32 690 17 c 0
 690 10 686 0 670 0 c 0
 650 0 629 3 567 3 c 0
 490 3 465 0 455 0 c 0
 445 0 440 7 440 14 c 0
 440 44.1928 488.187 18.9004 520 46 c 0
 527 52 528 61 528 73 c 0
 528 88 523 135 517 230 c 1
 289 230 l 1
 225 118 204 86 204 65 c 0
493 587 m 1
 307 260 l 1
 515 260 l 1
 493 587 l 1
EndSplineSet
EndChar
StartChar: afii10018
Encoding: 1041 1041 23
Width: 704
Flags: HMW
TeX: 0 0 0 0
HStem: -0 31<77 414.5> 351 34<446.5 559> 652 31<247.5 696>
VStem: 585 94<187.5 271.5>
Back
323.435 372.174 m 1
 323.435 372.174 l 1
 349.477 376.365 375.842 378.964 402.13 381.029 c 0
 429.304 383.163 456.606 384.711 483.87 384.776 c 0
 497.057 384.783 510.287 385.061 523.435 383.867 c 0
 551.261 381.304 578.999 373.865 603.435 360.08 c 0
 617.497 352.146 630.288 342.164 641.338 330.385 c 0
 649.782 321.384 657.059 311.304 662.843 300.435 c 0
 667.348 291.861 671.019 282.806 673.693 273.478 c 0
 675.815 266.077 677.348 258.513 678.218 250.87 c 0
 684.843 196.763 661.612 143.024 627.96 101.739 c 0
 588.913 53.8356 533 18.6956 472.565 5.61822 c 0
 437.996 -1.88874 402.487 -4.01288e-05 367.348 -4.01288e-05 c 2
 216.044 -4.01288e-05 l 1
 111.261 -4.01288e-05 l 1
 84.7393 -4.01288e-05 l 2
 79.6441 0.135612 73.8698 0.239525 69.6041 3.32735 c 0
 60.1315 10.1021 65.3067 25.6521 75.0376 29.2639 c 0
 78.5376 30.5556 82.3563 30.7169 86.0437 30.8121 c 2
 98.6524 31.0239 l 2
 110.391 31.3043 122.229 31.7391 133.87 33.4591 c 0
 141.909 34.6426 150.047 36.5217 156.478 41.7391 c 0
 162.511 46.7282 166.298 53.6556 168.916 60.8695 c 0
 172.845 71.703 175.155 83.1847 177.946 94.3478 c 2
 279.033 498.696 l 1
 304.468 600.435 l 2
 306.624 609.059 309.087 617.714 310.391 626.519 c 0
 311.146 631.255 311.574 636.522 309.232 640.965 c 0
 305.41 648.103 295.865 649.324 288.651 650.221 c 0
 276.856 651.686 264.875 651.99 253 652.14 c 0
 246.478 652.174 238.647 651.49 232.984 655.217 c 0
 225.397 660.332 226.719 671.824 232.457 677.804 c 0
 234.951 680.404 238.217 681.739 241.78 682.401 c 0
 246.878 683.285 252.131 683.037 257.348 683.042 c 2
 279.957 683.044 l 1
 352.131 683.044 l 1
 576.478 683.044 l 1
 668.218 683.044 l 1
 693.435 683.032 l 2
 698.725 683.005 704.561 683.274 709.512 681.107 c 0
 715.482 678.492 717.477 672.609 717.348 666.495 c 0
 717.344 661.707 716.59 656.916 715.986 652.174 c 2
 713.424 632.174 l 1
 696.913 503.044 l 2
 695.609 493.235 694.869 483.208 692.89 473.478 c 0
 691.696 467.914 689.367 462.421 683.854 459.942 c 0
 677.344 456.957 668.105 458.48 664.418 465.074 c 0
 662.478 468.543 662.364 472.609 662.565 476.522 c 0
 663.167 486.404 664.825 496.254 665.858 506.087 c 0
 668.218 528.568 670.07 551.304 668.127 573.913 c 0
 666.913 587.657 664.434 602.001 657.054 613.9 c 0
 652.954 620.511 647.43 626.207 641.222 630.867 c 0
 622.353 645.033 597.674 648.954 574.739 650.778 c 0
 556.222 652.25 537.647 652.174 519.087 652.174 c 2
 457.348 652.174 l 2
 444.487 652.174 431.486 652.691 418.652 651.729 c 0
 409.439 651.038 400.391 648.903 394.519 641.248 c 0
 387.783 632.609 385.579 620.782 382.956 610.435 c 2
 369.957 558.696 l 2
 354.469 496.522 338.589 434.436 323.435 372.174 c 1
315.609 341.304 m 1
 315.609 341.304 l 1
 296.478 266.926 278.308 192.319 259.685 117.826 c 0
 254.976 98.9935 250.068 80.1974 245.607 61.3043 c 0
 244.432 56.3261 243.223 51.2691 242.824 46.0869 c 0
 242.565 43.2235 242.565 40 244.053 37.3669 c 0
 245.798 34.133 249.331 32.7413 252.751 32.0343 c 0
 259.342 30.6721 266.303 30.8695 273 30.8695 c 2
 357.348 30.8695 l 1
 389.956 30.8695 l 2
 403.87 30.8695 417.605 31.0782 431.261 34.1043 c 0
 450.648 38.4 469.041 46.8852 485.609 57.7369 c 0
 515.776 77.4965 540.573 105.468 557.972 136.956 c 0
 582.494 181.304 595.449 238.206 573 286.087 c 0
 570.079 292.483 566.478 298.628 562.385 304.345 c 0
 556.913 311.821 550.542 318.586 543.413 324.455 c 0
 534.436 331.846 524.26 337.692 513.435 341.92 c 0
 502.456 346.208 490.82 348.787 479.087 349.823 c 0
 470.708 350.564 462.273 350.435 453.87 350.431 c 0
 407.654 350.366 361.494 346.522 315.609 341.304 c 1
EndSplineSet
Fore
65 13 m 0
 65 20 68 31 86 31 c 0
 168 31 165 43 178 94 c 2
 304 600 l 2
 308 616 311 626 311 633 c 0
 311 648 300 652 253 652 c 0
 242 652 228 652 228 666 c 0
 228 683 243 683 252 683 c 2
 696 683 l 2
 711 683 717 680 717 666 c 0
 717 657 694 477 693 473 c 0
 690 462 684 459 677 459 c 0
 663 459 663 470 663 475 c 0
 663 491 669 522 669 554 c 0
 669 643 624 652 524 652 c 2
 432 652 l 2
 411 652 393 652 386 623 c 2
 323 372 l 1
 358 378 427 385 497 385 c 0
 621 385 679 310 679 233 c 0
 679 142 596 32 473 6 c 0
 450 1 426 -0 403 -0 c 0
 85 -0 l 2
 74 0 65 2 65 13 c 0
243 43 m 0
 243 33 249 31 273 31 c 2
 390 31 l 2
 421 31 448 33 486 58 c 0
 538 92 585 162 585 232 c 0
 585 277 560 351 461 351 c 0
 432 351 388 349 316 341 c 1
 259 114 243 60 243 43 c 0
EndSplineSet
EndChar
StartChar: afii10020
Encoding: 1043 1043 24
Width: 627
Flags: HW
TeX: 0 0 0 0
HStem: 0 31<297 340.5> 652 31<238 683>
VStem: 656 48<539.5 673>
Back
234.27 681.267 m 1
 234.27 681.267 l 1
 238.656 683.025 243.612 682.974 248.261 683.02 c 2
 268.261 683.043 l 1
 339.13 683.043 l 1
 583.044 683.043 l 1
 662.174 683.043 l 1
 683.041 683.004 l 2
 687.768 682.929 692.93 682.882 697.19 680.563 c 0
 702.747 677.539 704.143 671.52 703.913 665.634 c 0
 703.787 660.84 703.043 656.056 702.44 651.304 c 2
 699.878 631.304 l 1
 683.868 506.087 l 2
 682.608 496.24 681.556 486.336 679.993 476.522 c 0
 679.108 470.977 677.723 464.932 672.932 461.404 c 0
 666.037 456.327 654.091 457.826 650.435 466.166 c 0
 648.148 471.377 649.13 477.584 649.772 483.043 c 0
 653.236 513.271 657.362 543.868 654.979 574.348 c 0
 653.715 590.524 650.652 607.386 640.129 620.301 c 0
 626.012 637.627 603.913 645.046 582.609 648.534 c 0
 561.394 652.001 539.703 652.173 518.261 652.174 c 2
 460 652.174 l 2
 446.956 652.174 433.847 652.702 420.869 651.729 c 0
 411.468 651.023 402.379 648.787 396.446 640.867 c 0
 391.728 634.568 389.502 626.613 387.391 619.13 c 0
 384.637 608.897 382.174 598.556 379.565 588.261 c 2
 352.609 480.435 l 1
 279.728 188.696 l 1
 257.391 99.5652 l 1
 250.721 72.6087 l 2
 249.099 65.9813 247.223 59.0917 247.391 52.1739 c 0
 247.467 50.2439 247.72 48.2609 248.261 46.387 c 0
 251.448 36.5217 262.867 34.7644 271.739 33.5926 c 0
 287.122 31.5604 302.765 31.2317 318.261 30.9557 c 2
 332.173 30.8426 l 2
 335.879 30.7978 339.687 30.7752 343.303 29.8648 c 0
 346.356 29.0965 349.243 27.5661 351.131 24.9809 c 0
 356.484 17.6491 352.174 5.65218 344.327 2.12609 c 0
 340.943 0.582179 337.139 0.344788 333.471 0.318266 c 2
 321.304 0.623049 l 2
 306.814 1.11174 292.321 1.50174 277.826 1.81305 c 0
 226.522 2.91479 175.181 3.31392 123.913 1.91131 c 2
 94.3478 1.02479 l 2
 88.0238 0.80044 81.5817 0.220874 75.2173 0.670005 c 0
 69.4565 1.08218 63.6665 3.43348 61.8986 9.4874 c 0
 61.5143 10.8035 61.3043 12.1739 61.3043 13.4783 c 0
 61.3043 15.53 61.7391 17.5139 62.3782 19.3904 c 0
 62.8838 20.8696 63.5686 22.3161 64.4482 23.623 c 0
 70.4347 32.5778 83.2591 30.7791 92.6086 30.9644 c 0
 104.497 31.2004 116.461 31.6104 128.261 33.1574 c 0
 135.836 34.1504 143.716 35.5661 150.244 39.7717 c 0
 156.303 43.6757 160.612 49.5652 163.553 56.087 c 0
 166.441 62.4796 168.199 69.3213 169.929 76.087 c 2
 175.652 99.1304 l 1
 194.185 173.043 l 1
 252.174 405.217 l 1
 296.25 581.304 l 2
 299.783 595.436 303.913 609.565 306.522 623.912 c 0
 307.701 630.092 308.781 637.713 304.459 642.964 c 0
 299.717 648.696 290.817 649.565 283.913 650.376 c 0
 273.252 651.599 262.462 651.937 251.739 652.11 c 0
 245.375 652.174 238.156 651.499 232.135 653.913 c 0
 230.746 654.515 229.437 655.217 228.261 656.282 c 0
 220.352 663.372 225.217 677.656 234.27 681.267 c 1
EndSplineSet
Fore
61 13 m 4
 61 38 88 28 128 33 c 0
 152 36 162 43 170 76 c 2
 296 581 l 2
 302 606 307 622 307 632 c 0
 307 650 293 652 258 652 c 0
 226 652 224 657 224 666 c 0
 224 673 228 683 248 683 c 2
 683 683 l 2
 697 683 704 680 704 666 c 0
 704 657 680 477 680 477 c 2
 678 463 671 458 664 458 c 0
 658 458 650 461 650 474 c 0
 650 489 656 524 656 555 c 0
 656 640 615 652 518 652 c 2
 440 652 l 2
 393 652 395 648 380 588 c 2
 251 73 l 2
 249 65 247 58 247 53 c 0
 247 35 262 31 332 31 c 0
 349 31 354 25 354 18 c 0
 354 1 338 0 330 0 c 0
 314 0 281 3 197 3 c 0
 127 3 92 0 80 0 c 0
 70 0 61 4 61 13 c 4
EndSplineSet
EndChar
StartChar: afii10022
Encoding: 1045 1045 25
Width: 678
Flags: HW
TeX: 0 0 0 0
HStem: -0 31<82.5 558> 339 31<318 404> 652 31<237 724>
VStem: 694 49<533.5 674>
Back
317.391 338.696 m 1
 317.392 338.696 l 1
 311.592 312.022 304.348 285.61 297.772 259.13 c 2
 262.174 116.956 l 2
 257.556 98.2607 252.686 79.5651 248.26 60.8694 c 0
 247.088 55.9038 245.851 50.8421 245.53 45.7347 c 0
 245.353 42.9142 245.482 39.8825 246.913 37.3668 c 0
 248.675 34.2686 252.075 32.8538 255.404 32.1212 c 0
 261.975 30.6742 268.962 30.8694 275.652 30.8694 c 2
 359.131 30.8694 l 2
 411.668 30.8694 466.391 29.276 515.652 50.4347 c 0
 522.832 53.4781 529.811 57.0794 536.522 61.0864 c 0
 544.181 65.6521 551.48 70.8229 558.232 76.6577 c 0
 573.742 89.9999 586.257 106.668 597.188 123.913 c 0
 613.478 149.565 626.442 177.35 638.538 205.217 c 0
 642.797 215.028 646.901 224.903 650.998 234.781 c 0
 653.467 240.731 655.652 247.537 660.314 252.174 c 0
 666.492 258.55 679.565 259.4 684.515 250.945 c 0
 686.696 247.171 686.176 242.703 685.033 238.688 c 0
 683.002 231.548 679.751 224.686 676.947 217.826 c 2
 641.947 132.174 l 1
 604.783 41.3042 l 1
 595.356 18.2608 l 2
 593.135 13.0434 590.719 7.33642 586.025 3.84468 c 0
 582.018 0.863808 576.957 0.282069 572.167 0.103808 c 0
 567.392 -0.000105202 562.604 -0.000105202 557.826 -0.000105202 c 2
 492.609 -0.000105202 l 1
 238.696 -0.000105202 l 1
 107.826 -0.000105202 l 2
 97.5942 -0.000105202 87.1877 -0.532279 76.9568 0.238156 c 0
 71.9046 0.620764 66.4547 1.96076 63.4786 6.52163 c 0
 59.3229 13.1699 62.4342 23.2782 68.6681 27.5421 c 0
 71.8794 29.7386 75.776 30.4051 79.5655 30.6629 c 0
 84.7803 31.0147 90.0003 30.8695 95.2177 31.0129 c 0
 105.652 31.2721 116.087 31.6695 126.522 32.8877 c 0
 134.952 33.8769 143.884 35.2173 151.089 39.9999 c 0
 165.345 49.5486 168.473 68.4816 172.336 83.9129 c 2
 197.826 186.087 l 1
 270.598 476.956 l 1
 294.511 572.609 l 1
 302.337 603.913 l 2
 304.134 611.11 306.087 618.261 307.306 625.65 c 0
 307.786 628.624 308.134 631.666 307.912 634.68 c 0
 307.791 636.322 307.492 637.959 306.9 639.5 c 0
 303.702 647.824 293.375 649.261 285.652 650.221 c 0
 275.572 651.473 265.365 651.816 255.218 652.05 c 0
 249.74 652.174 244.19 651.95 238.696 652.526 c 0
 235.012 652.918 231.185 653.899 228.389 656.522 c 0
 222.684 661.912 224.167 671.653 228.886 677.173 c 0
 232.786 681.735 238.668 682.694 244.348 682.926 c 0
 249.709 683.146 255.08 683.043 260.435 683.043 c 2
 343.913 683.043 l 1
 630.435 683.043 l 1
 705.653 683.043 l 2
 711.878 683.043 718.119 683.155 724.342 682.954 c 0
 728.778 682.811 733.576 682.475 737.373 679.927 c 0
 742.456 676.517 743.332 670.435 743.04 664.77 c 0
 742.451 653.311 740.35 641.739 738.898 630.435 c 2
 722.999 506.087 l 2
 721.739 496.24 720.687 486.336 719.124 476.522 c 0
 718.239 470.977 716.854 464.932 712.062 461.404 c 0
 706.233 457.111 696.377 457.391 691.503 463.044 c 0
 689.205 465.746 688.368 469.224 688.227 472.609 c 0
 688.042 477.139 688.696 481.653 689.261 486.087 c 2
 691.305 504.348 l 2
 692.101 511.439 692.758 518.54 693.263 525.652 c 0
 694.597 544.44 695.107 563.478 692.011 582.174 c 0
 689.5 597.306 684.157 611.823 673.292 622.988 c 0
 668.963 627.391 664.017 631.271 658.689 634.45 c 0
 636.175 647.826 608.24 650.338 582.609 651.485 c 0
 564.933 652.276 547.255 652.174 529.565 652.174 c 2
 463.913 652.174 l 2
 449.899 652.174 435.727 652.753 421.739 651.739 c 0
 412.759 651.124 403.812 649.245 397.772 641.995 c 0
 390.862 633.702 388.541 621.942 385.94 611.739 c 2
 372.989 560 l 1
 342.772 439.13 l 2
 336.957 416.087 330.98 393.129 325.652 370 c 1
 383.044 370 l 2
 396.667 370 410.301 369.831 423.913 370.435 c 0
 445.623 371.494 468.924 374.265 486.899 387.586 c 0
 510.435 405.036 519.451 435.148 526.783 462.173 c 0
 528.948 470.154 530.68 480.64 539.125 484.348 c 0
 540.405 484.977 541.739 485.36 543.145 485.581 c 0
 544.944 485.868 546.792 485.885 548.596 485.634 c 0
 549.967 485.443 551.305 485.094 552.597 484.553 c 0
 558.406 482.089 560.435 476.344 559.944 470.403 c 0
 559.467 464.683 557.742 459.028 556.358 453.478 c 2
 550 428.261 l 1
 511.685 274.783 l 2
 508.696 262.917 506.087 250.87 502.609 239.13 c 0
 500.826 232.925 498.002 226.599 491.427 224.278 c 0
 484.963 221.997 476.226 223.625 472.943 230.2 c 0
 471.693 232.704 471.437 235.54 471.624 238.261 c 0
 471.99 243.714 473.586 249.072 474.783 254.348 c 2
 477.478 266.957 l 1
 479.13 276.522 l 2
 481.463 291.597 483.632 310.435 472.727 322.88 c 0
 470.964 324.885 468.94 326.65 466.746 328.166 c 0
 460.986 332.147 454.187 334.329 447.391 335.757 c 0
 437.542 337.826 427.391 338.447 417.391 338.836 c 0
 404.348 339.34 391.3 339.13 378.261 339.13 c 2
 317.826 339.13 l 1
 317.391 338.696 l 1
EndSplineSet
Fore
62 14 m 0
 62 30 75 31 96 31 c 0
 150 31 160 34 172 84 c 2
 302 604 l 2
 305 617 308 626 308 633 c 0
 308 651 283 652 259 652 c 0
 236 652 225 652 225 666 c 0
 225 675 230 683 244 683 c 2
 724 683 l 2
 735 683 743 681 743 667 c 0
 743 657 719 477 719 477 c 2
 717 462 710 458 704 458 c 0
 689 458 688 470 688 476 c 0
 688 491 694 516 694 551 c 0
 694 647 637 652 540 652 c 2
 442 652 l 2
 402 652 396 651 386 612 c 2
 326 370 l 1
 404 370 l 2
 477 370 505 381 527 462 c 0
 529 472 532 486 546 486 c 0
 557 486 560 480 560 472 c 0
 560 466 559 463 556 453 c 2
 507 254 l 2
 501 229 498 223 484 223 c 0
 479 223 472 228 472 237 c 0
 472 251 481 274 481 296 c 0
 481 334 455 339 396 339 c 2
 318 339 l 1
 318 339 245 55 245 44 c 0
 245 32 254 31 276 31 c 2
 379 31 l 2
 542 31 580 65 651 235 c 0
 655 245 659 257 672 257 c 0
 679 257 686 253 686 244 c 0
 686 236 595 18 595 18 c 2
 588 -0 584 0 558 -0 c 2
 89 -0 l 2
 76 0 62 -0 62 14 c 0
EndSplineSet
EndChar
StartChar: afii10024
Encoding: 1046 1046 26
Width: 1152
Flags: HMW
TeX: 0 0 0 0
HStem: 0 31<458.5 478.5 1066 1075> 683 -31
Back
476.87 417.391 m 1
 476.87 417.391 l 1
 464.175 434.137 452.315 451.533 440.195 468.696 c 2
 383.034 549.565 l 1
 359.376 583.043 l 2
 350.253 595.955 341.191 608.56 329.417 619.238 c 0
 312.487 634.59 292.234 646.648 269.478 650.539 c 2
 264.696 651.261 l 2
 257.457 652.174 247.931 652.609 244.655 660.435 c 0
 244.236 661.505 243.96 662.568 243.813 663.647 c 0
 243.526 665.735 243.716 667.826 244.226 669.918 c 0
 244.644 671.593 245.285 673.219 246.15 674.715 c 0
 252.087 685.077 265.565 682.383 275.565 681.739 c 0
 293.972 680.554 312.346 680.435 330.783 680.435 c 0
 353.391 680.435 376 680.783 398.609 681.47 c 0
 409.43 681.739 420.348 682.758 431.197 682.443 c 0
 436.367 682.293 442.008 681.185 444.971 676.478 c 0
 448.684 670.578 446.555 661.834 441.841 657.112 c 0
 440.027 655.295 437.739 654.045 435.352 653.219 c 0
 432.047 652.091 428.543 651.66 425.127 650.993 c 0
 421.428 650.27 417.739 649.319 414.261 647.954 c 0
 399.874 642.37 385.204 628.476 386.87 611.739 c 0
 387.136 609.659 387.627 607.617 388.34 605.652 c 0
 390.464 599.798 394.261 594.628 397.812 589.565 c 2
 411.626 570 l 1
 457.714 504.783 l 2
 507.674 434.029 557.304 363.043 607.739 292.609 c 1
 613.792 320.435 621.319 348.015 628.174 375.652 c 2
 665.511 524.783 l 1
 682.359 592.174 l 1
 687.739 613.913 l 2
 689.141 619.565 690.61 625.408 690.893 631.276 c 0
 690.994 633.374 690.923 635.502 690.447 637.554 c 0
 688.541 645.769 680.338 648.348 672.948 649.565 c 0
 657.157 652.259 641.07 651.618 625.13 652.288 c 0
 621.217 652.453 617.097 652.828 613.639 654.783 c 0
 606.831 658.785 606.425 667.504 609.711 673.913 c 0
 613.301 681.008 620.348 682.609 627.739 682.69 c 0
 639.327 682.714 650.947 681.892 662.522 681.534 c 0
 715.101 679.91 767.739 679.953 820.348 681.304 c 2
 846.435 682.128 l 2
 852.026 682.33 857.739 682.843 863.33 682.303 c 0
 870.198 681.64 876 677.715 876.355 670.329 c 0
 876.435 668.356 876.164 666.367 875.565 664.473 c 0
 875.131 662.824 874.437 661.23 873.515 659.778 c 0
 867.739 650.78 855.653 652.259 846.435 652.103 c 0
 834.259 651.896 822.004 651.486 809.913 649.946 c 0
 802.229 648.967 794.2 647.592 787.538 643.397 c 0
 781.503 639.565 777.216 633.776 774.259 627.371 c 0
 771.321 621.004 769.479 614.163 767.739 607.391 c 2
 762.468 586.087 l 1
 745.076 516.522 l 2
 726.417 441.883 708.157 367.131 689.044 292.609 c 1
 718.907 317.977 749.309 342.725 779.479 367.727 c 2
 940.783 501.392 l 1
 1016.44 564.088 l 2
 1033.27 578.041 1051.51 591.449 1065.13 608.696 c 0
 1071.49 616.797 1078.26 628.527 1073.18 638.868 c 0
 1072.44 640.376 1071.48 641.739 1070.35 643.022 c 0
 1068.9 644.66 1067.17 646.051 1065.3 647.193 c 0
 1058.9 651.1 1051.31 650.847 1044.68 653.913 c 0
 1042.52 654.972 1040.66 656.418 1039.33 658.363 c 0
 1035.13 664.348 1037.45 673.649 1042.52 678.394 c 0
 1047.27 682.725 1053.91 682.778 1059.91 682.609 c 2
 1091.65 681.496 l 2
 1122.8 680.515 1153.97 680.099 1185.13 680.435 c 0
 1193.69 680.589 1202.24 680.973 1210.78 681.458 c 0
 1216.23 681.739 1221.79 682.424 1227.25 682.058 c 0
 1229.87 681.882 1232.51 681.304 1234.8 680 c 0
 1241.42 676.087 1241.53 667.391 1238.38 661.259 c 0
 1234.14 652.92 1225.13 652.306 1216.87 651.304 c 0
 1211.9 650.703 1206.97 649.886 1202.09 648.776 c 0
 1175.91 642.826 1151.47 630.1 1129.04 615.652 c 0
 1114.7 606.43 1101.22 596.087 1087.74 585.652 c 2
 1068.61 571.401 l 2
 1055.93 561.399 1043.65 550.87 1031.22 540.571 c 2
 937.305 462.757 l 2
 918.97 447.564 900.783 432.05 882.087 417.391 c 1
 891.596 391.304 901.564 365.494 911.344 339.565 c 2
 961.181 207.391 l 1
 993.474 121.739 l 2
 999.913 104.488 1006.11 87.0409 1013.12 70 c 0
 1018.04 58.067 1024.87 45.7979 1036.11 38.7757 c 0
 1039.32 36.7726 1042.81 35.2174 1046.44 34.2266 c 0
 1052.92 32.3244 1059.71 31.6674 1066.44 31.2513 c 0
 1070.86 30.977 1075.43 31.0166 1079.77 29.9974 c 0
 1086 28.534 1090.47 23.9131 1090.42 17.3261 c 0
 1090.35 15.3383 1090.03 13.3505 1089.39 11.4735 c 0
 1088.87 9.97917 1088.17 8.54178 1087.28 7.23395 c 0
 1081.04 -1.92474 1068.08 0.434824 1058.61 0.987868 c 2
 1049.91 1.41352 l 2
 1003.83 3.4783 957.699 2.90048 911.652 1.65917 c 2
 888.609 0.869607 l 2
 883.703 0.737868 878.761 0.404824 873.826 0.600476 c 0
 868.107 0.830042 861.974 2.51395 859.609 8.34569 c 0
 857.071 14.6031 859.67 22.9292 864.909 26.9566 c 0
 867.499 29.0522 870.674 29.9922 873.826 30.4348 c 0
 878.897 31.1953 884.006 31.187 889.044 31.717 c 0
 898.759 32.7387 908.439 35.2174 916 41.6827 c 0
 918.174 43.4783 920.224 45.6522 921.877 48.0435 c 0
 923.767 50.7483 925.206 53.7635 926 56.9566 c 0
 926.87 60.3674 927.027 63.9118 926.616 67.3913 c 0
 925.96 72.9422 924.007 78.2605 922.087 83.4783 c 2
 915.072 102.174 l 1
 892.446 162.174 l 1
 846.387 284.348 l 2
 836.435 310.549 826.324 336.677 816.87 363.044 c 1
 786.856 337.826 756.593 313.005 726.435 288.012 c 2
 698.609 264.956 l 2
 692.641 260 686.104 255.185 681.217 249.049 c 0
 676.354 242.787 674.696 234.95 672.796 227.391 c 2
 664.967 196.087 l 1
 640.076 96.5218 l 1
 632.839 67.3913 l 2
 631.329 61.0139 629.478 54.1226 630.268 47.5196 c 0
 630.443 46.0218 630.783 44.537 631.372 43.1448 c 0
 634.059 36.7835 641.086 34.6931 647.304 33.5735 c 0
 663.513 30.6631 680.07 31.5274 696.423 30.7322 c 0
 700.183 30.5492 704.134 30.13 707.445 28.1878 c 0
 714.046 24.3148 714.517 15.8526 711.504 9.48393 c 0
 708.127 2.34828 701.156 0.424803 693.817 0.359151 c 0
 682.244 0.256107 670.611 1.13611 659.043 1.49567 c 0
 606.617 3.1248 554.085 3.16611 501.652 1.73915 c 2
 475.565 0.946977 l 2
 469.913 0.744803 464.257 0.273064 458.609 0.661325 c 0
 452.02 1.12089 445.705 4.26654 444.696 11.4748 c 0
 443.811 18.4783 447.629 26.087 454.209 28.9526 c 0
 458.169 30.6452 462.633 30.7448 466.87 30.8318 c 0
 482.087 31.1439 497.403 31.1996 512.522 33.2739 c 0
 523.754 34.7826 534.463 37.9092 541.652 47.2431 c 0
 548.055 55.4165 550.684 65.8083 553.209 75.6522 c 2
 562.25 111.739 l 2
 573.627 157.249 584.78 202.821 596.435 248.261 c 1
 557.893 302.174 l 1
 515.13 363.043 l 1
 514.696 363.043 l 1
 505.84 352.174 496.548 341.739 487.304 331.304 c 2
 451.122 290 l 1
 340.534 163.913 l 1
 294.776 111.739 l 2
 286.712 102.53 279.043 93.0435 271.499 83.4782 c 0
 266.693 77.3587 261.652 71.3043 257.496 64.7826 c 0
 255.565 61.7391 253.82 58.5856 252.522 55.2174 c 0
 251.743 53.0096 251.133 50.6869 251.037 48.2609 c 0
 250.98 46.9235 251.106 45.5182 251.461 44.1648 c 0
 254.261 33.4404 267.693 31.9522 276.869 31.2674 c 2
 282.508 30.8696 l 2
 285.059 30.6661 287.639 30.3991 290.095 29.6452 c 0
 292.522 28.8856 294.892 27.5913 296.573 25.5913 c 0
 301.552 19.67 299.387 9.68216 294.078 4.68999 c 0
 289.564 0.434772 283.141 0.272163 277.301 0.377815 c 2
 246 1.46521 l 2
 202.957 2.83303 159.865 3.40955 116.87 2.02086 c 2
 95.1304 1.12912 l 2
 90.2574 0.869554 85.2804 0.420424 80.3478 0.869554 c 0
 74.363 1.47129 68.8635 4.66999 67.7391 11.0704 c 0
 66.3691 19.5056 71.8574 27.823 80.0583 29.8969 c 0
 85.3483 31.2348 91.0217 31.0322 96.4348 31.4083 c 0
 104.508 31.9687 112.522 33.0196 120.348 35.3752 c 0
 133.772 39.4474 145.13 47.5822 155.564 56.8056 c 0
 164.2 64.4739 172.235 72.8104 180.051 81.3039 c 2
 195.338 98.0165 l 2
 200.546 103.478 205.952 108.804 211.035 114.348 c 0
 231.596 137.12 251.489 160.435 271.652 183.478 c 2
 393.73 322.609 l 1
 443.303 379.13 l 2
 454.415 391.739 465.409 404.594 476.87 416.957 c 1
 476.87 417.391 l 1
EndSplineSet
Fore
68 14 m 4
 68 37 95 28 120 35 c 0
 141 42 152 50 211 114 c 2
 477 417 l 1
 353 591 l 2
 294 675 244 636 244 666 c 0
 244 674 250 683 263 683 c 0
 270 683 277 680 331 680 c 0
 388 680 417 683 427 683 c 0
 442 683 447 676 447 669 c 0
 447 663 442 654 432 652 c 0
 413 650 387 638 387 615 c 0
 387 605 393 596 398 590 c 2
 608 293 l 1
 628 386 691 612 691 632 c 0
 691 667 607 639 607 664 c 0
 607 670 611 683 628 683 c 0
 639 683 674 680 742 680 c 0
 789 680 853 683 862 683 c 0
 872 683 876 676 876 669 c 0
 876 638 814 661 788 643 c 0
 777 635 771 622 768 607 c 2
 689 293 l 1
 1016 564 l 2
 1028 574 1075 607 1075 631 c 0
 1075 659 1037 643 1037 666 c 0
 1037 674 1045 683 1057 683 c 0
 1068 683 1099 680 1163 680 c 0
 1189 680 1208 683 1221 683 c 0
 1235 683 1240 680 1240 669 c 0
 1240 650 1223 653 1202 649 c 0
 1117 629 1012 519 882 417 c 1
 993 122 l 2
 1022 46 1024 34 1066 31 c 0
 1075 31 1090 31 1090 17 c 0
 1090 4 1080 0 1070 0 c 0
 1062 0 1053 3 985 3 c 0
 920 3 888 0 877 0 c 0
 863 0 859 6 859 13 c 0
 859 43 892 21 916 42 c 0
 924 48 927 55 927 63 c 0
 927 69 925 76 922 83 c 2
 817 363 l 1
 678 248 l 1
 678 248 630 64 630 50 c 0
 630 16 714 45 714 19 c 0
 714 10 710 0 694 0 c 0
 682 0 647 3 578 3 c 0
 521 3 488 0 469 0 c 0
 449 0 445 3 445 14 c 0
 445 23 450 31 467 31 c 0
 490 31 528 29 542 47 c 0
 552 61 555 87 596 248 c 1
 515 363 l 1
 295 112 l 2
 264 76 251 58 251 47 c 0
 251 20 299 44 299 16 c 0
 299 10 295 0 279 0 c 0
 268 0 235 3 169 3 c 0
 122 3 96 0 85 0 c 0
 76 0 68 3 68 14 c 4
EndSplineSet
EndChar
StartChar: afii10025
Encoding: 1047 1047 27
Width: 613
Flags: W
TeX: 0 0 0 0
HStem: -22 31<241 382.5> 344 23<315 431.5> 674 31<264 528>
VStem: 110 32<76.5 152> 506 91<155 247> 570 87<497.5 600>
Back
458.696 356.087 m 1
 458.696 356.087 l 1
 484.647 349.565 509.565 340 531.739 324.732 c 0
 545.399 315.3 557.954 304.001 568.153 290.869 c 0
 575.586 281.297 581.851 270.751 586.522 259.565 c 0
 590 251.178 592.69 242.412 594.348 233.478 c 0
 604.75 178.649 578.536 124.122 542.803 83.9131 c 0
 522.721 61.3044 498.88 42.174 473.044 26.6131 c 0
 419.726 -5.65209 357.924 -22.5425 295.652 -22.1738 c 0
 266.69 -21.9569 237.214 -18.8308 209.565 -9.88122 c 0
 194.197 -4.90687 179.395 1.83226 166.087 11.0466 c 0
 156.522 17.6657 147.734 25.4479 140.266 34.3479 c 0
 117.391 61.6392 109.13 97.6562 110.219 132.609 c 0
 110.669 146.161 112.174 159.767 115.056 173.036 c 0
 116.309 178.951 117.826 185.882 123.195 189.5 c 0
 130.641 194.547 144.648 192.826 146.649 182.754 c 0
 147.73 177.309 146.021 171.432 145.05 166.087 c 0
 143.638 158.261 142.594 150.435 142.035 142.609 c 0
 140.211 116.874 143.736 89.7514 157.378 67.3914 c 0
 160.771 61.8305 164.783 56.6701 169.247 51.9218 c 0
 188.659 31.2375 215.217 20.0875 242.609 14.3366 c 0
 255.926 11.5331 269.465 10.0001 283.044 9.27792 c 0
 296.841 8.50792 310.655 8.50966 324.348 10.5792 c 0
 341.978 13.244 359.118 18.8053 375.217 26.4175 c 0
 395.924 36.2084 414.9 49.3744 431.721 64.8905 c 0
 469.709 99.9327 497.68 147.538 504.862 199.131 c 0
 509.439 232.012 504.75 267.265 485.88 295.217 c 0
 481.385 301.874 476.087 308.009 470.306 313.478 c 0
 464.654 318.917 458.442 323.674 451.739 327.664 c 0
 437.543 336.087 421.6 341.075 405.217 342.917 c 0
 394.11 344.165 382.897 343.913 371.739 343.913 c 2
 330.87 343.913 l 1
 315.217 343.913 l 2
 311.256 343.913 307.138 343.913 303.287 344.99 c 0
 298.531 346.292 294.505 349.959 294.783 355.217 c 0
 294.783 356.387 295.125 357.541 295.584 358.617 c 0
 299.13 367.053 310.229 366.477 317.826 366.512 c 2
 323.044 366.521 l 1
 362.174 366.522 l 2
 371.3 366.522 380.435 366.346 389.565 367.03 c 0
 398.816 367.724 407.979 369.315 416.957 371.642 c 0
 450.126 380.237 480.346 398.939 504.746 422.752 c 0
 535.52 452.787 558.171 491.022 566.382 533.478 c 0
 569.755 550.87 570.732 568.903 568.211 586.522 c 0
 566.087 601.282 561.473 615.824 553.872 628.696 c 0
 542.116 648.605 523.148 663.888 500.87 670.3 c 0
 482.817 675.497 463.703 674.743 445.217 672.694 c 0
 406.912 668.449 369.97 655.013 338.261 633.03 c 0
 312.965 615.493 291.189 592.784 273.862 567.391 c 0
 263.044 551.542 253.913 534.55 246.303 516.957 c 0
 243.815 511.224 241.507 505.418 239.312 499.565 c 0
 237.619 495.055 236.087 490.292 233.571 486.174 c 0
 228.826 478.541 217.391 475.583 209.76 480.87 c 0
 203.629 485.217 204.932 493.264 206.328 499.565 c 0
 209.782 515.154 214.009 530.6 217.826 546.087 c 2
 248.098 666.957 l 1
 252.019 682.607 l 2
 253.037 686.618 253.913 690.724 255.614 694.541 c 0
 257.551 699.08 261.007 703.196 266.244 703.598 c 0
 273.698 704.172 279.088 697.391 283.044 692.08 c 0
 293.044 678.696 302.538 664.783 311.739 650.87 c 1
 325.101 660.772 339.004 669.78 353.913 677.19 c 0
 392.689 696.457 435.903 705.64 479.13 705.16 c 0
 513.346 704.779 547.826 697.92 578.261 681.89 c 0
 594.255 673.466 608.982 662.39 621.227 649.07 c 0
 631.015 638.425 639.229 626.221 645.205 613.043 c 0
 650.215 601.996 653.728 590.235 655.652 578.261 c 0
 657.202 568.63 657.567 558.87 657.237 549.13 c 0
 656.956 541.24 656 533.394 654.466 525.652 c 0
 644.005 472.847 605.381 430.215 561.739 401.104 c 0
 530.566 380.311 495.217 364.783 458.696 356.522 c 1
 458.696 356.087 l 1
EndSplineSet
Fore
110 127 m 4xf8
 110 177 119 192 133 192 c 0
 140 192 147 188 147 179 c 0
 147 170 142 158 142 130 c 0
 142 33 226 9 299 9 c 0
 410 9 506 120 506 222 c 0xf8
 506 272 481 344 381 344 c 2
 315 344 l 2
 304 344 295 345 295 355 c 0
 295 366 310 367 318 367 c 2
 369 367 l 2
 494 367 570 480 570 566 c 0
 570 625 535 674 470 674 c 0
 378 674 284 619 239 500 c 0
 234 486 231 478 218 478 c 0
 211 478 205 482 205 491 c 0
 205 496 210 514 216 538 c 2
 252 683 l 2
 256 699 261 704 267 704 c 0
 276 704 286 689 312 651 c 1
 365 690 418 705 476 705 c 0
 580 705 657 645 657 555 c 0xf4
 657 440 532 372 459 356 c 1
 557 331 597 268 597 209 c 0
 597 101 467 -22 298 -22 c 0
 184 -22 110 26 110 127 c 4xf8
EndSplineSet
EndChar
